<?xml version="1.0" encoding="UTF-8"?>
<svg id="Layer_2" data-name="Layer 2" xmlns="http://www.w3.org/2000/svg" viewBox="0 0 121.22 165.34">
  <defs>
    <style>
      .cls-1 {
        fill: #f07851;
      }

      .cls-2 {
        fill: #f9f8f6;
      }

      .cls-3 {
        fill: #e07752;
      }

      .cls-4 {
        fill: #111216;
      }

      .cls-5 {
        fill: #848c9a;
      }

      .cls-6 {
        fill: #b55b3f;
      }

      .cls-7 {
        fill: #0d0a0d;
      }

      .cls-8 {
        fill: #271615;
      }

      .cls-9 {
        fill: #b24b2f;
      }

      .cls-10 {
        fill: #cecfd7;
      }

      .cls-11 {
        fill: #26292e;
      }

      .cls-12 {
        fill: #a1a7b6;
      }

      .cls-13 {
        fill: #9ea7b7;
      }

      .cls-14 {
        fill: #676f7c;
      }

      .cls-15 {
        fill: #bfc3cd;
      }

      .cls-16 {
        fill: #dd7d56;
      }

      .cls-17 {
        fill: #fdbb84;
      }

      .cls-18 {
        fill: #231413;
      }

      .cls-19 {
        fill: #c1c6d0;
      }

      .cls-20 {
        fill: #ececed;
      }

      .cls-21 {
        fill: #0e0c0d;
      }

      .cls-22 {
        fill: #88909d;
      }

      .cls-23 {
        fill: #b34a2e;
      }

      .cls-24 {
        fill: #c74c2e;
      }

      .cls-25 {
        fill: #faaa7b;
      }

      .cls-26 {
        fill: #cccdd5;
      }

      .cls-27 {
        fill: #ea9267;
      }

      .cls-28 {
        fill: #22252e;
      }

      .cls-29 {
        fill: #e78d5f;
      }

      .cls-30 {
        fill: #bac0cb;
      }

      .cls-31 {
        fill: #e57c54;
      }

      .cls-32 {
        fill: #9da5b5;
      }

      .cls-33 {
        fill: #c5c7cf;
      }

      .cls-34 {
        fill: #c0c5cf;
      }

      .cls-35 {
        fill: #bbbfcb;
      }

      .cls-36 {
        fill: #53312b;
      }

      .cls-37 {
        fill: #808895;
      }

      .cls-38 {
        fill: #c64f2e;
      }

      .cls-39 {
        fill: #c8cad2;
      }

      .cls-40 {
        fill: #202227;
      }

      .cls-41 {
        fill: #b7563c;
      }

      .cls-42 {
        fill: #bfc3ce;
      }

      .cls-43 {
        fill: #bcbfca;
      }

      .cls-44 {
        fill: #f8996b;
      }

      .cls-45 {
        fill: #4f5864;
      }

      .cls-46 {
        fill: #828b9a;
      }

      .cls-47 {
        fill: #9ba4b4;
      }

      .cls-48 {
        fill: #e68e61;
      }

      .cls-49 {
        fill: #bfc4ce;
      }

      .cls-50 {
        fill: #8e95a2;
      }

      .cls-51 {
        fill: #dc7c55;
      }

      .cls-52 {
        fill: #e86f4a;
      }

      .cls-53 {
        fill: #9ca5b5;
      }

      .cls-54 {
        fill: #b05239;
      }

      .cls-55 {
        fill: #bcc0cb;
      }

      .cls-56 {
        fill: #e88b59;
      }

      .cls-57 {
        fill: #603a30;
      }
    </style>
  </defs>
  <g id="Layer_1-2" data-name="Layer 1">
    <g>
      <g>
        <path class="cls-2" d="M11.44,43.68c-1.17,1.41-2.14,5.21-2.79,7.12-2.55,7.56-6.22,17.42-8.09,24.94-.8,3.24-.68,5.04-.09,8.28,1.19,6.55,6.57,27.63,9.77,32.64,4.51,7.05,17.07,9.66,24.83,10.81.09-1.23-.13-2.62,0-3.83-1.79-.99-.99-3.93-.52-5.57l1.31-3.79-.44-.72.4-1.92c-1.24-8.52,1.79-16.61,5.7-24.03-1.4,4.29-2.7,8.86-3.11,13.36-.03.29.04.59.13.89s.22.62.37.92c.61,1.01,2.71,1.39,3.48.35l.77-.16c1.21-1.8,2.59-3.49,4.15-5.06l-.4-.69c1.36-1.05,2.83-4.39,2.09-5.91l1.19-.99c1.32-3.2,7.9-16.86,10.52-17.61.66-.19,7.57,10.95,7.69,11.42.4.53.88.95,1.46,1.27,1.09,3.37,2.29,6.75,3.58,10.13l1.64,2.04-.35.87c1.95,2.92,3.73,5.95,5.33,9.07l.93.48c-1.02.64-.08,2.25,1.04,1.74l.72-1.19c.04-3.69.02-7.4-.51-11.05-.5-3.44-1.15-7.73-3.33-10.35.12-.26.2-.5.13-.69-2.35-6.81-10.01-20.05-14.75-25.47-.14-.16-.39-.22-.67-.25.1-.33-.02-.45-.35-.35-2.49-1.16-5.23-1.29-8.24-.39l-4.59-5.17c-2.22-.27-1.44,2.86.32,2.43.47,1.88,1.51,3.61,3.12,5.2-.57-.95-1.26-1.41-2.08-1.37l-1.15-.67c-9.06.44-19.57,4.33-23.18,13.19-.42.44-.65,1.13-.7,2.09l-.98.68c-1.86,3.59-3.62,7.19-5.28,10.79l-1.19.63-3.97,6.56,4.56-10.77c1.74-4.58-2.94-1.58-4.64-.29l-3.36,2.9c1.11-4.87,4.47-8.34,9.25-9.53.84-.52.46-.95-.3-1.33-.08-.31-.2-.31-.35,0-3.89-1.32-8.31-.26-12.09,1.07l.27-1.07,2.48-.93-.05-.46c4.79-2.22,2.96-3.84-1.57-4.32,3.78.01,7.33-.51,10.67-1.58,2.3-1.58,3.76-9.83,3.99-12.68l-.57-.54c-3.52-.62-6.53-1.91-8.48-5.24l-.56.02c-.03-1.16-.49-2.29-1.41-3.39-.34-1.22-.92-2.06-1.72-2.52Z"/>
        <path class="cls-2" d="M86.88,127.45c12.19-2.63,22.6-3.75,27.01-16.96,2.57-7.68,5.36-18.19,6.88-26.14,1.67-8.68-1.75-13.61-4.11-21.62-1.51-5.14-2.77-12.37-4.84-17.06-1.7-3.86-2.95-3.04-6.87-3.04-.16.4-.14.76.28.9l4.21.63c-.64,1.62-1.45,3.15-2.43,4.6l.03,1.17c-.37-.09-.68-.02-.92.25-2.71,3.02-4.18,3.72-8.12,4.62-.47.05-.79.23-.97.53-.36.63,2.26,13.19,4.73,13.3,3.64.58,7.32.94,11.05,1.08l-4.74,1.23c-.75.28-.87.65-.33,1.25l.12.84c1.82,1.12,3.8,1.88,5.79,2.64l.06.88c-4.21-1.27-9.03-2.65-13.27-.88-.76-.67-1.25-.17-.7.7l.65.71c5.26.31,8.13,5.16,9.57,9.73-1.54-1.63-3.24-3.07-5.08-4.34-2.76-1.9-4.2-1.03-2.85,2.13l3.65,8.1-3.99-6.24-1.25-.7c-1.28-3.01-2.79-5.95-4.54-8.83l-1.02-.56c-.12-1.38-.46-2.42-1.04-3.13-4.54-10.5-17.88-13.27-28.41-13.54l-1.13.68.32,1.06c5.65,7.63,10.39,15.9,14.22,24.59l.75.78-.2.53c4.39,7.52,6.59,15.71,6.19,24.55l.61,2.73c-.96.99.18,2.74,1.04,3.48-.02.31-.24.49-.58.59.46,1.93.63,3.49-.81,4.98-.21.91-.56,3.64.29,4.02l.76-.2Z"/>
        <path class="cls-13" d="M15.26,47.85c.53-1.48,1.93-4.33,2.09-5.56-2.12.02-4.43-.38-5.91,1.39.57,2.33,1.77,4.06,3.13,5.91.64-.1.87-.68.7-1.74Z"/>
        <path class="cls-55" d="M20.48,75.31c-1.81-1.76-4.76-.86-7.09-1.01l-4.73,1.01c-1.25.93-2.59,1.96-3.73,3.03-.2.19-1.02.22-.27.8,4.57-2.96,10.35-4.37,15.81-3.83Z"/>
        <path class="cls-43" d="M100.43,75.66c5.89-.77,12.31.34,17.2,3.83-.15-.73-1.17-1.6-1.73-2.1-.67-.6-1.52-1.23-2.27-1.73l-7.11-1.41c-2.74-.06-3.97-.28-6.1,1.41Z"/>
      </g>
      <g>
        <path class="cls-36" d="M70.88,150.75c8.76-3.93,13.75-11.69,14.25-21.21-.07-4.32-.94-8.87-4.23-11.97-2.68-2.53-5.03-1.9-2.28,1.55-1.91-1.59-4.5-2.94-7.05-2.8-1.39.07-3.69.6-2.24,2.25,1.37.29,2.52.79,3.67,1.59,3.31,2.3,3.55,3.63-1.1.75-4.87-2.04-7.6-2.35-2.75,2.07,3.37,3.44,6.08,7.7,6.7,12.54,1.1-2.62-8.62-16.29-10.9-15.72-.61.15-.96.34-1.02,1.01-.08-.24-.16-.47-.3-.66-.23-.32-7.08-.78-7.8-.36-2.95,1.7-5.04,13.63-5.05,16.69.11-4.8.34-9.82,2.39-14.21,2.24-2.41,3.96-4.89-1.1-3.7-4.41,1.03-8.34,5.09-9.98,9.21-.46,1.16-1.38,3.63-.42,4.37-.23,0-.42.02-.46.1-.44.99.1,4.89.46,5.98-1.84-6.7.73-13.86,5.78-18.58.44-1.27-.47-1.78-1.62-1.29,2.7-2.26.63-3.07-2.06-2.22-1.3.41-2.47,1.41-3.36,2.42.29-.59.82-1.77.13-2.18-1.53-.92-5.18,6.79-4.44,8.64-2.38,10.64,3.32,20.49,12.86,25.03,1.47,1.98,4.86,2.57,7.33,2.96,4.52.72,11.07.84,14.58-2.27Z"/>
        <path class="cls-8" d="M36.12,125.02c.6-2.68,2.34-6.44,4.35-8.34l-3.14,7.29v1.4c2.14-4.31,3.9-9.09,9.57-9.04l-3.47,3.31c-.08,1.2.98.01,1.55-.19.61-.22,1.68-.78,2.27-.51-4.9,4.07-7.93,12.11-6.15,18.32.1.36.08,1.05.59.97v-6.08c0-5.68,6.27-12.94,12.25-13.14.17,0,.99-.35.96.28,0,.14-1.58,1.48-1.88,1.93-3.43,5.03-3.57,19.94-1.77,25.71.16.52.23,1.24.87,1.39-1.03-5.72-.95-11.77.05-17.51.35-2.02,2.39-9.68,4.13-10.48,1.06-.49,5.41.66,6.95.17.97,6.32,2.82,12.6,2.44,19.12.07.1.44-.18.52-.34.64-1.3-.18-5.35.53-7.11-.55-2.5-.31-5.06-.8-7.57-.29-1.46-.94-2.42-1.29-3.58-.14-.47.04-.65.51-.51,1.19.35,5.68,5.7,6.58,6.98,3.24,4.61,4.76,10.73,3.09,16.24-.37,1.22-1.41,2.31-1.32,3.54,6.85-10.21,1.75-20.47-6.78-27.46,3.58.97,6.96,2.52,10.08,4.52-.24-2.82-3.28-4.94-5.66-5.99-.57-.25-2.85-.37-1.16-1,3-1.12,6.83.84,8.91,2.98,1.69,1.75,2.41,3.88,3.81,5.75-.6-3.42-2.83-6.47-4.86-9.21-.06-.26.35-.23.51-.17,4.19,1.71,6.46,8.74,6.78,12.86.25-4.73-.34-9.06-1.75-13.72-.14-.46-.66-1.26,0-1.57.83-1-.37-3.53-1.39-4.17.31-.06.3-.18,0-.35-.64-.47-.79-1.05-1.04-1.74-.69-1.35-4.42.38-4.17,1.74-2.3.68-4.42,1.81-6.35,3.38l.1.79-.39-.28c-6.73,5.13-18.79,4.33-24.84-2.29-2.71-.27-.97,1.72.27,2.85-1.92-1.63-3.34-3.84-3.88-6.31-.86-.81-1.35-.64-1.39.47-.53.16-1.16,1.69-1.44,2.43-.04.1,0,.22.05.35-1.77,1.35-2.93,4.43-2.43,6.6.89,2.32-1.61,4.98-.35,7.3Z"/>
        <path class="cls-36" d="M71.23,151.09c-1.76.59-3.82,1.34-2.38,3.47-1.48-1.53-4.33-1.76-3.58.94-.19-.74-.6-1.09-1.24-1.45-.49-.28-4.68-.5-5.42-.51-2.68-.03-5.06,0-7.07,2.11l1.38-1.49c.9-1.52-3.04-3.35-4.3-3.42-1.73-1.22-1.81-.27-2.04,1.6-.94,7.65,6.66,13.05,13.69,12.99,6.47-.06,14.96-5.28,14.05-12.66-.33-2.71-1.04-3.06-3.1-1.59Z"/>
        <path class="cls-8" d="M48.64,150.75c1.42.99,2.36,2.03,4.16,2.61-1.76,1.57-3.19,3.16-2.77,5.74.95-.54,1.07-1.76,1.74-2.61,1.65-2.09,4.44-2.47,6.95-2.26.68.59-5.01,5.72-5.56,6.25,2.04-.43,3.88-2.47,5.21-4,.44-.5,1.07-1.89,1.4-2.1.18-.11,3.97.24,4.17.36,1.36.8.89,4.24.3,5.52-.35.76-1.02,1.25-1.17,1.96,2.75-1.77,3.62-4.92,2.61-8,3.34-.71,3.98,3.42,3.83,5.91,1.69-1.85.42-5.23-.69-7.29,1.06-.13,1.72-1.25,2.43-1.75l-.35-.35c-6.65,2.99-15.41,2.4-21.9-.7l-.35.7Z"/>
        <path class="cls-52" d="M87.22,118.07c-.21-.92-.69-2.67-1.04-3.48,0-2.09-1.96-6.1-4.17-4.52.02.9,1.06,3.04,1.39,4.17.37,1.24,1.14,2.81,1.39,3.82,1.95.02-.44-1.16.22-.14.2.31,2.7,1.41,2.21.14Z"/>
        <path class="cls-44" d="M87.22,118.07c-.41.96-.37-.58-.89-.67-.46-.08-1.27.82-1.21-.14l-.34.8c.32,1.27.49,3.45.7,4.87.03.33.14.56.35.7,2.62,0,1.75-3.98,1.39-5.56Z"/>
        <path class="cls-8" d="M86.88,127.45c-1.81.51-.85-2.35-1.04-3.82-.04-.34-.34-.61-.35-.7v4.87c.63.27,1.1-.28,1.39-.35Z"/>
        <path class="cls-18" d="M65.32,109.03c-7.55-4.53-14.61-4.95-22.94-5.91-1.14-.13-2.33-.14-3.48-.35-.02.21-.3.48-.35.7.29.72.73,1.21,1.39.7l.43.95,4.09,1.13c5.95.55,11.84,1.44,17.65,2.67,2.24,1.21,3.31,1.25,3.21.12Z"/>
        <path class="cls-57" d="M70.54,113.9c.8-.62.33-1.65-.7-1.39-.88-1.03-3.31-2.75-4.52-3.48-.22.72-1.02-.02-1.39-.18-6.96-3.01-17.99-1.84-23.99-4.69-1.59-1.24-.32,3.83-.11,3.98.13.1.29.15.46.19l.69-.52c.71,4.2,4.78,8.79,9.04,9.04-1.77-1.2-3.48-2.53-4.87-4.17-.33-.39-.84-.57-.69-1.22,6.48,6.69,14.01,7.26,22.67,4.77,3.06-.88,1.99-1.28,3.4-2.33Z"/>
        <path class="cls-56" d="M76.79,109.73c-.6-.51-.94-.16-1.51.03-1.75.6-4.14,1.43-5.44,2.75.28.32.43,1,.7,1.39,1.44-1.08,4.6-3.12,6.26-4.17Z"/>
      </g>
      <g>
        <path class="cls-1" d="M35.08,123.63c.21-1.95.83-4.03,1.39-5.91.66-2.23,1.52-4.47,2.43-6.6.22-.59.22-.67-.35-.35-1.5-.86-3.37,1-3.13,2.78-.57,1.16-2.03,5.54-2.1,6.77-.06.97-.04,4.47,1.76,3.31Z"/>
        <path class="cls-5" d="M26.74,75.66c.68-2.48.79-4.91.35-7.3,1.25-1.49,1.38-4.25.35-5.91.34-1.97.34-3.82,0-5.56-1,.12-1.59.98-1.79,2.58-.6,5.98-2.6,9.55-8.85,10.41-1.62.53-2.9,1.52-3.85,2.95l-1.85,1.09c-.73.46-1.78.9-2.43,1.39l.44.62c3.9-1.3,7.69-1.5,11.38-.62.11.01.24-.02.35,0,.3.53.7,1.08,1.19,1.66.13,3.23-.69,6.42-2.48,9.56-.08.68.31.88.94.6,2.17-3.69,4.95-7.42,6.26-11.47Z"/>
        <path class="cls-49" d="M20.48,87.13c-.69-.2,0-1.04.16-1.41.96-2.36,4.49-9.59.19-10.41.68,1.02.24.52-.42.79-2.8,1.11-4.58,1.79-6.52,4.26-1.73,2.2-3.01,5.44-2.96,8.16,1.79-2.34,4.23-4.59,6.81-6.05.62-.35,1.56-1.25,2.06-.37-2,4.34-3.91,8.71-5.57,13.2-.93,2.51-2.39,6-2.97,8.51-.08.35-.5,1.46.19,1.41,1.59-6.71,5.63-12.27,9.04-18.07Z"/>
        <path class="cls-19" d="M38.56,110.77c1.38-1.35,1.58-3.23.6-5.63.17-.62-.03-1.18-.6-1.67.9.27,1.01-.04.35-.7.81-7.79,2.77-15.03,6.31-22.02,1.29-2.55,3.02-4.88,4.12-7.52-3.26,4.29-6.07,9.43-8.52,14.25-4.34,8.54-7.22,16.2-5.38,26.08,1.05-2.16,1.65-1.86,3.13-2.78Z"/>
        <path class="cls-49" d="M11.09,73.92c2.15.18,3.16-2.14,4.62-2.86,2.68-1.32,5.8-.98,8.08-3.74,2.62-3.18,1.6-7.18,3.64-10.44.74-1.02.8-2.48,0-3.48h-.35c-1.18.5-2.34.96-3.48,1.39-.89,2.97-1.26,10.69-3.64,12.52-2.83,2.18-9.87.22-13.04,2.6,2.27.36,4.68.51,6.78,1.56l-2.61,2.44Z"/>
        <path class="cls-34" d="M79.58,86.78c-.49-.85-.88-.58-.7.35,2.96,8.43,3.3,13.86,3.13,22.6,0,.12,0,.23,0,.35,2.01-.1,3.46,2.92,4.17,4.52.35-7.56-.17-14.41-3.07-21.44-.94-2.29-2.56-4.38-3.54-6.37Z"/>
        <path class="cls-12" d="M79.58,86.78c-4.58-9.25-8.97-18.15-15.3-26.42-.1-.13-.25-.22-.35-.35-.8-.38-.73.04-.35.7,5.59,7.35,12.24,17.73,15.3,26.42l.7-.35Z"/>
        <path class="cls-37" d="M50.72,57.23c-.64.09-1.12-.02-.76.92.19.49,1.43,2.4,1.8,2.9,1.31,1.75,3.39,3.65,4.86,5.4,1.1,1.3,2.23,3.2,3.31,4.34.42.45.6.58.52-.17-2.79-4.8-6.45-8.96-9.73-13.39Z"/>
        <path class="cls-11" d="M27.43,73.57c.13-.66.33-1.8.35-2.43.52-1.24,1.21-3.16-.7-2.78l-.35,7.3c.2-.61.6-1.58.7-2.09Z"/>
        <path class="cls-46" d="M99.74,76.35c.26-.33.37-.44.7-.7,4.05-1.18,8.25-.98,12.58.58l.63-.58c-1.57-1.06-4.23-2.64-5.91-3.48l-.19-.86-6.6-2.32c-4.12-1.95-4.53-4.73-5.01-8.95-.17-1.69-.75-2.52-1.76-2.48-.35,1.01-.18,2.09,0,3.13-.51.67-.46,1.39,0,2.09-1.1,1.21-.93,4.95,0,6.26-.3,2.44-.07,4.87.7,7.3,1.35,3.14,3.77,6.42,5.56,9.39.57.38.97.21.95-.47-1.8-2.97-2.31-5.67-1.51-8.1l-.14-.82Z"/>
        <path class="cls-42" d="M100.43,85.74c1.62,2.69,3.56,5.21,5.05,7.99,1.81,3.36,3.01,6.94,4.51,10.43.45-.22.01-.95-.08-1.31-.67-2.6-1.92-6.04-2.86-8.61-1.26-3.43-3.76-7.73-4.71-10.93-.14-.47-.23-.91-.16-1.4,3.49,1.24,5.83,3.91,8.24,6.51.21.22.22,1.03.8.27-1.41-5.75-4.65-12.41-11.48-12.34-.32.41-.77.41-.97,1.29-.57,2.61.6,4.43,1.51,6.69.15.37.85,1.21.16,1.41Z"/>
        <path class="cls-15" d="M107.73,72.18c.21-.71.89-.65,1.45-.81,2.03-.58,4.14-1,6.2-1.45-2.92-2.16-12.06-.43-14.23-2.45-1.46-1.36-2.8-8.75-3.26-11.02-.12-.62-.39-1.04.11-1.65-1.31-.27-2.7-.62-4.17-1.04-.81.41-.8,1.33,0,1.74.12.74.24,1.43.35,2.09,1.52,1.92,1.11,4.92,1.92,7.29,1.89,5.5,7.34,5.18,11.64,7.31Z"/>
        <path class="cls-40" d="M94.18,69.05c-.91.07-1.15.88-.7,2.43.16.42.12,1.19.35,1.74.39.97.6,2.09,1.04,3.13l-.7-7.3Z"/>
        <path class="cls-20" d="M40.29,108.34c.08-1.57-1.85-3.5-.35-4.17-.47-.22-.92-.47-1.39-.7-.17.73.21.57.31,1.25.21,1.32.94,5.28-.31,6.05l.35.35c.38-.88,1.33-1.63,1.39-2.78Z"/>
        <path class="cls-14" d="M31.6,60.71l.71-1.26c.12-5.04,1.08-10.08,3.19-14.68l-.07-1.44s-.42-.34-.7,0c-.98,2.3-3.01,3.42-5.21,4.52l-.66.32c-.77,4.72-1.25,9.48-1.43,14.28-.06,1.99-.12,3.94-.35,5.91.88.62.72,1.82.7,2.78.82-1.32,2.92-4.22,3.32-5.55.48-1.6-.32-3.43.51-4.88Z"/>
        <path class="cls-7" d="M94.18,60.71c-.13-1.75-.24-3.49-.35-5.21-.01-.58.02-1.16,0-1.74,0-.12,0-.23,0-.35-.08-1.74-.55-3.45-.35-5.21-.45-.09-.95-.2-1.39-.35.34,4.46.72,8.97,1.39,13.39.09.62-.17,1.31.7,1.56,0-.69,0-1.39,0-2.09Z"/>
        <path class="cls-14" d="M94.18,57.58c0-.66.24-1.71-.35-2.09.04,1.67-.32,3.77.35,5.21,0-1.04.01-2.09,0-3.13Z"/>
        <g>
          <path class="cls-47" d="M85.49,40.9c-.49-1.52-2.88-6.7,0-6.6.37-.45.63-1.08.77-1.87.87-.76,1.31-1.53,1.32-2.3l.09-.89c-3.08-3.07-7.01-6.27-11.65-5.16-.47-.18,2.06-3.58,2.84-3.66.62-1.15.13-1.48-1.02-1.41-1.23-1.14-3.22.83-3.82,2.09-.43,1.27-1.48,2.62-2,4.09-1.25,3.57-3.14,10.98-5.65,13.64-.93,1.84,4.35,1.75,4.94,1.28.06-.65.27-1.19.62-1.63l.53-.12c.63-3.9,1.93-5.12,6.08-4.05-.45.86-.39,3.23.7,3.48l.03,2.45c1.92.88,3.63,2.1,5.12,3.66l.76-.2h.55c-.11-.93-.17-1.85-.2-2.78Z"/>
          <path class="cls-53" d="M35.43,43.33l.36.34c1.64-1.35,3.45-2.56,5.44-3.63l.11-.88.62-.49-.6-4.23c.21-.49,4.1-1.01,4.72-.47l2.41,5.69.84.2c2.67.86,6.56.49,9.39-.35-2.85-.82-2.86.49-4.66-2.12-2.51-3.65-5.01-11.24-6.11-15.61-.67-1.68-2.33-3.58-4.17-2.78-.98.6-.67,1.53.93,2.79l.97,2.59c-3.11-1.38-6.98-.37-9.48,1.84-1.05.93-3.03,2.96-2.16,4.25.14,1.22.72,2.38,1.74,3.48.46.22,1.15.38,1.34.93.37,1.07-1.79,7.08-2.38,8.46.22.44.5.47.7,0Z"/>
          <path class="cls-35" d="M71.93,38.46l-.44-.27-.26,1.66c-1.49-.69-3.97.34-4.86-1.04-.28.3-.13.56-.86.69-1.73.3-4.84-.02-6.78,0-2.49.02-4.99-.03-7.48,0-.59,0-1.55-.22-1.91.35-.44,1.78,1.01,5.6,2.78,6.26.37,2.88,1.49,2.93,3.8,1.38,3.15-.31,6.51-.5,9.61.19,2.15,1.94,3.52-.13,4.65-2.02s2.24-5.2,1.75-7.2Z"/>
          <path class="cls-33" d="M88.96,29.08c-.32-2.14-1.8-4.92-3.13-6.6-1.69-2.14-3.04-2.97-5.56-3.82-.85-.4-2.24-.73-2.43.35l.87.7c-2.12,1.18-3.34,3.29-4,5.56,5.16-2.34,9.43,1.46,12.86,4.87.42-.31,1.15-.37,1.39-1.04Z"/>
          <path class="cls-39" d="M34.04,30.47c1.71-4.15,5.69-6.6,10.23-5.89,1.01.16,1.63.97,2.63,1.02l-1.59-4.14c-.46-.83-1.77-1.19-1.54-2.46-.69-.76-2.91-.65-3.82,0-1.11.29-3.76,2.56-4.52,3.48s-3.15,5.22-3.13,6.26c-1.52.7.71,2.84,1.74,1.74Z"/>
          <path class="cls-9" d="M77.84,18.99c.84-.24,1.49-.52,2.43-.35-.22-.08-.44-.54-1.23-.68-1.09-.19-3.25-.4-4.34-.02-.12.72-.48,2.49-.7,3.13,1.43-.8,2.18-1.61,3.82-2.09Z"/>
          <path class="cls-30" d="M51.77,61.06l.42-.6c-1.08-1.13-1.57-2.21-1.47-3.22-.41-.55-1.43-1.38-.87-2.08.79.8,4.33,5.35,4.95,5.51.9.23,2.99-.63,4.09-.64,1.23-.01,2.92.68,4.34.35-.08-.56.19-.52.7-.35-.1.33.02.44.35.35,8.9.09,18.57,1.71,25.38,7.82l4.17,5.04c.47-.45.39-1.74-.35-1.74v-1.61c-1-2.65-2.5-4.66-4.52-6.04-3.53-6.63-12.28-10.43-19.32-12.19-12.69-3.18-28.65,1.23-36.99,11.5-.42-.47-.77-1.28-1.04-2.43-.74-.17-1.1.27-1.07,1.33.48,3-.69,4.93-2.38,7.31l-.37,1.79c-.67.32-.73,1.82-.35,2.43,1.76-1.88,2.84-4,4.86-5.74,5.29-4.56,12.55-6.75,19.47-6.77Z"/>
          <path class="cls-45" d="M63.93,60.01c-1.24-1.59-2.8-3.6-4.16-5.05-.72-.77-1.72-2.02-2.79-2.25l4.16,4.7c.77.92,1.37,2,2.1,2.94.1.13.25.22.35.35l.35-.7Z"/>
          <path class="cls-14" d="M94.18,69.05c.2-1.9-.02-4.28,0-6.26-.69-4.49-1.2-9.11-1.54-13.87l-.55-1.08c-1.11-.37-4.31-1.95-5.06-2.76-1.06-1.15-1.1-2.79-1.55-4.19-.8.8.39,1.87-.35,2.78l-.11,1.03c1.65,2.43,2.42,5.29,3.04,8.14.72,3.3,1.15,7.06,1.53,10.43.02.17-.11.36-.29.56-.11-.15-.22-.14-.35,0,1.52,2.01,3.62,5.33,4.52,7.65.13-.63.64-1.93.7-2.43Z"/>
          <path class="cls-4" d="M86.53,58.97l-.02-.87c-2.92-3.62-6.36-6.34-10.75-8.17l-.5-.56c-1.91.09-3.75-.7-4.76-1.95,1.69-1.36,3-4.08,3.11-6.24-.47-1.07-.01-3.34.31-4.64.17-.7.4-1.51,1.22-1.58,1.91.47,3.04.25,3.4-.67-.74-.74-3.34-.86-4.31-.31-1.13.65-1.88,3.22-2.3,4.48-.97,2.93-1.07,5.22-3.05,7.9s-1.88.81-3.74.46-7.47-.38-9.37,0-1.61,2.65-3.66-.7c-.75-.33-1.05.01-.84.79-2.12-1.12-1.77.82-1.38,2.18l-2.49,1.07c-.5-.84-1.34-.91-1.2.13-4.14,2.14-8.33,4.5-11.37,8.17l-.1,1.22c-1.29.1-3.02,2.44-2.09,3.48,7.62-7.49,19.64-12.48,30.43-11.83,8.88.53,20.46,5.38,25.88,12.53h.35c.47-1.51-1.24-4.29-2.78-4.87Z"/>
          <path class="cls-26" d="M85.14,43.68c-.31-.39-2.35-2.26-2.8-2.59-.56-.39-2.63-1.16-2.7-1.29-.05-.09-.32-1.61-.4-2.03l-.79.69c-.21,3.25-.86,6.4-1.94,9.44l.3.99.52.88c4.14,1.46,7.23,4.83,9.57,8.44l-.36.76c1.06,1.31,1.87,3.64,2.78,4.87.03.05.98.89,1.05.52-.9-6.23-1.18-15.54-5.22-20.68Z"/>
          <path class="cls-28" d="M75.75,49.93c.87.71,1.77-.2,1.04-1.04,1.67-3.27,1.96-7.54,2.43-11.12-.18-.91,0-2.78-.7-3.48-1.08.56-2.33-.25-3.64,0-1.91.38-1.76,3.26-1.94,4.67-.06.45-.53.82-.54,1.06-.03.44.76.96.51,1.99-.05.19-1.48,3.47-1.59,3.65-.46.71-1.41.93-1.5,1.65-.15,1.27.7.93,1.28,1.35.19.14.2.5.56.66.85.38,3.33,1.02,4.09.59Z"/>
          <path class="cls-10" d="M32.65,63.14c.46-1.09,1.36-2.56,2.09-3.48-.74-1.51,1.12-3.6,2.24-4.83,2.07-2.28,4.75-3.93,7.46-5.33l.37-.96.38-.73c-1.36-2.64-2.34-5.49-3.08-8.37l-.78-.29c-1.07.7-2.17,1.03-3.24,1.8-.89.64-1.84,2.03-2.67,2.37-2.73,5.32-3.84,11.43-3.82,17.38,0,1.27,0,2.55,0,3.82l1.04-1.39Z"/>
          <path class="cls-28" d="M46.2,50.28s.18-.28.35-.16c.26.17.25.88.5.84,1.12-.16,2.71-1.42,4.01-1.38l-1.04-2.43c.78-.1,1.04.86,1.9.69,1.19-.23-.74-1.48.18-1.74-1.23-2.02-1.85-4.19-2.78-6.26-.59-1.31-2.19-5.68-2.76-6.37-.86-1.04-5.5-.07-5.9.49-.15.21.53,4.52.67,5.18.53,2.5,2.17,7.21,3.48,9.39-.88.68.42,2.27,1.39,1.74Z"/>
          <path class="cls-50" d="M34.73,59.67c3.12-3.96,6.6-6.05,10.97-8.32.6-.31,1.13-.28.5-1.06-.4-.39-1.11-1.27-1.39-1.74-4.8,2.32-9.9,5.83-11.47,11.12h1.39Z"/>
          <path class="cls-22" d="M86.53,58.97c.08.04,1.63.43,1.74.18-2.51-4.36-6.46-8.93-11.47-10.26-.18.36-.67.83-1.04,1.04-.66.97-.25.52.34.86,2.25,1.3,4.4,2.27,6.43,4.02,1.25,1.08,2.92,3.57,4.01,4.16Z"/>
        </g>
      </g>
      <g>
        <path class="cls-25" d="M69.84,112.51l.81.2c1.87-1.17,4.02-2.46,6.14-2.98,1.26-.8,2.62-1.67,4.17-1.74-1.85-5-4.19-6.67-5.91-10.43-2.91-4.19-10.37-9.07-15.55-8.15-4.64.82-9.94,4.28-12.61,7.8-.9,1.75-4.02,3.66-4.52,5.91l1.05.82c7.53.6,14.97,2.1,21.89,5.09.11,1.3,3.14,3.42,4.52,3.48Z"/>
        <path class="cls-3" d="M48.98,91.3c.86.59,1.97.36,3.33-.68,6.54-5.4,10.92-4.2,17.84-.35.61.3,1.34.38,1.47-.33-.71-1.54-1.31-3.05-1.79-4.55-1.4-2.69-2.86-5.29-4.51-7.83l-4.69-6.07c-5.24,5.56-8.67,12.82-11.66,19.81Z"/>
        <path class="cls-6" d="M46.9,97.21c.15.69.88-.36,1.04-.52,2.88-2.9,9.17-6.84,13.35-6.74,3.21.07,8.07,3.07,10.61,5.03,1.02.79,1.91,2.14,3.16,2.58-1.85-4.04-3.06-8.02-5.21-12.17-.7.21,0,1.04.17,1.39.23.49,1.48,2.86,1.22,3.12-3.55-1.11-7.46-4.19-11.3-3.82-3.59.34-7.38,4.34-10.95,5.22-.78,1.83-1.38,4.53-2.09,5.91Z"/>
        <path class="cls-24" d="M23.61,54.8c1.24-.05,2.79-.28,3.48-1.39-.48-.66-1.27.36-2.06.55-3.97.95-9.19-1.83-9.76-6.11-.19.54-.57,1.13-.7,1.74,2.29,3.13,4.81,5.37,9.04,5.21Z"/>
        <path class="cls-21" d="M29.52,47.85c-.47.24-1.7-.04-2.03.93-.14,1.54-.03,3.09-.06,4.64-.02,1.16.01,2.32,0,3.48-.02,1.85.05,3.72,0,5.56l2.09-14.6Z"/>
        <g>
          <path class="cls-48" d="M35.43,22.47c.13.1.26.19.41.23.28.08,4.23-3.09,4.11-3.71,1.59-.67,3.36-.67,5.32,0,1.23.14,1.89-.21,1.98-1.05-.86-5.38-.53-11.03-3.21-16.08-.84-1.58-2.32-2.14-4.01-1.41-1.85.79,1.16,4.78.61,6.37-1.19.28-.53-1.31-.77-2.18-1.34-4.76-3.59-3.55-2.7.79-1.11-.35-.04-2.6-1.52-2.04-1.11.42-.96,1.77-.92,2.74-3.47-.78-1.58,2.58-1.39,4.52l-.7-1.73c-2.1.29-1.33,2.44-.94,3.9.85,3.12,2.71,6.54,3.72,9.66Z"/>
          <path class="cls-29" d="M85.83,22.47c.35-2.25,4.87-11.03,4.47-12.62-.36-1.39-1.62-.51-1.68-.59-.16-.19,1.21-2.75-.57-3.43-1.49-.57-.59,2.34-1.86,2.74.12-1.78,1.99-6.54-1.39-4.52.47-1.19-.9-3.37-1.91-2.08l-1.91,5.21c-.76-2.29,3.29-5.77.18-6.98-1.7-.66-2.93.49-3.59,2.02-2.38,5.55-1.96,10.15-2.85,15.74l.74.54c1.67-.21,3.28-.16,4.82.15.45.84,1.36,1.51,2.7,2,.95,1.05,1.9,1.66,2.86,1.82Z"/>
          <path class="cls-23" d="M47.25,17.95c-1.81.69-4.07.27-6.04.39-.09,0-2.23.27-1.26.65,1.51-.39,2.32-.41,3.82,0,1.83.51,2.76,1.65,4.17,2.78-.2-.81-.55-2.89-.7-3.82Z"/>
          <g>
            <g>
              <path class="cls-17" d="M27.08,53.41c.1.3.21.3.35,0,.73-1.14.97-2.63.72-4.46.78-.21,1.24-.57,1.37-1.1,2.12.76,5.22-2.39,5.21-4.52,1.6-.79,3.45-7.23,3.04-8.64-.24-.84-1.43-1.68-2-.75-1.85-.44-3.55,2.95-4.17,4.52-.31.09-.3.21,0,.35-.56,2.2-2.3,3.13-5.21,2.78.05-.92-.83-.05-.77-.06,1.93-.02,1.17-2.76.22-3.64l1.64.27c-.07,3.07,3,2.48,3.78.29,2.82-3.46,2.89-4.46-1.33-6.01l-6.08-1.4c-1.31-1.43-2.55-1.74-3.71-.93-.4.31-.91.36-1.39.87-2.49,2.63-.96,7.93-1.39,11.3l-.76.25-1.79,4.58.46.74c-.63,1.79.93,3.4,2.23,4.48,2.76,2.29,6.47,2.91,9.59,1.08Z"/>
              <path class="cls-51" d="M35.77,33.94c.41-1.33-.85-2.59-1.74-3.48-.36-.36-1.71-.32-1.74-1.74-1.53.58-3.12-1.34-4.77-1.66-2.67-.52-5.35,1.49-7.39,3.05,1.77-.54,2.26,1.17,3.46,1.58,1.65.56,8.48,1.29,9.01,3.19.19.7-.86,3-1.34,3.58.1.3.21.3.35,0,.41-1.53,4.03-4.06,4.17-4.52Z"/>
              <path class="cls-54" d="M26.39,41.59c3.01.33,4.75-.6,5.21-2.78.03-.11-.03-.24,0-.35h-.35c-1.55,1.87-3.79,1.78-2.78-1.04-1.62.21-2.83-.22-4.17-1.05.4,2.03,3.23,3.5,1.04,5.21.33.05.74-.06,1.04,0Z"/>
              <path class="cls-31" d="M31.6,38.81c-1.24,2.2-3.14,2-5.21,2.78,1.39.28,2.66.68,4.08.08,1.66-.7.87-1.81,1.13-2.86Z"/>
            </g>
            <g>
              <path class="cls-16" d="M102.52,30.81c-1.24-1.15-5.24-4.01-6.87-4.09-2.01-.1-4.71,2-6.69,2.35-.82-.25-1.57.08-1.39,1.04-1.23.92-2.88,2.4-2.09,4.17.09.2,3.09,2.1,3.47,2.78.24-.29-.95-1.82,0-2.61.38-.31,4.2-1.64,5.03-1.92,2.65-.9,5.75-1.84,8.53-1.73Z"/>
              <path class="cls-32" d="M104.95,42.63c-.64-.64-.31-2.16-.35-3.13-1.14,2.97.82,5.93,1.74,8.69-.25,1.11-.02,1.69.7,1.74.71-.93,3.3-5.14,3.11-6.06-.2-.99-4.46-.51-5.2-1.24Z"/>
              <path class="cls-38" d="M98,54.8c3.93-.14,6.69-1.82,9.04-4.87-.12-.6-.52-1.21-.7-1.74-.69,2.41-2.56,4.85-5.21,5.21-2.13.61-4.37.11-6.47-.42l-.83.42c-.31.06-.3.18,0,.35,1.28,1.19,2.53,1.1,4.17,1.04Z"/>
              <g>
                <path class="cls-17" d="M101.13,53.41c.93.74,2.89-.84,3.71-1.66,1.04-1.04,1.96-2,1.5-3.55l.5-.69-1.64-4.35c-.87-.88-1.07-2.1-.6-3.66-.07-2.15.14-6.13-1.04-7.83-.29-.42-.74-.57-1.04-.86-2.02-.78-4.21-.65-6.58.36-2.37.58-7.03,1.88-8.11,3.99-.84-.9-1.62-1.19-2.35-.88-.94-1.48-2.02.14-2.09,1.6-.06,1.19.78,4.99,2.09,5-.13,1.89.47,3.97,1.87,5.32.71.69,4.03,2.53,4.74,1.63.22,1.03.79,1.26,1.39.35,0,.6.34.7.82.75.46,3.77,3.17,5.67,6.83,4.46Z"/>
                <path class="cls-41" d="M96.26,41.59c-.13-.69-1.22-.46-1.06-1.19l2.27-4.37c-1.5,1.08-2.76,1.65-4.69,1.4.86,3.59-1.95,2-3.47.35-.21.62.53.82.6,1.26.05.32-.6,2.56.61,2.56h5.74Z"/>
                <path class="cls-27" d="M101.13,53.41c-2.54.35-4.58-.44-5.7-2.82-.35-.75-.49-2.3-.57-2.38-.14-.14-1.02.06-1.37-.01-1.15.72-.72,4.44.35,5.21,2.27,1,5.02,1.01,7.3,0Z"/>
              </g>
            </g>
          </g>
        </g>
      </g>
    </g>
  </g>
</svg>