<?xml version="1.0" encoding="UTF-8"?>
<svg id="Layer_1" xmlns="http://www.w3.org/2000/svg" version="1.1" viewBox="0 0 130 58">
  <!-- Generator: Adobe Illustrator 29.5.0, SVG Export Plug-In . SVG Version: 2.1.0 Build 137)  -->
  <defs>
    <style>
      .st0 {
        fill: #ffb300;
      }

      .st0, .st1 {
        fill-rule: evenodd;
      }

      .st2, .st1 {
        fill: #e65100;
      }

      .st3 {
        fill: #2a2a29;
      }
    </style>
  </defs>
  <path class="st2" d="M84.4,39h12v2.9h-8.8v4.4h8.3v2.9h-8.3v4.9h9.2v2.9h-12.4v-18.1Z"/>
  <path class="st2" d="M77.8,55.7c-2.2,1.2-4.7,1.8-7.5,1.8s-2.7-.2-3.9-.7c-1.2-.5-2.2-1.1-3-1.9-.8-.8-1.5-1.8-2-3-.5-1.2-.7-2.4-.7-3.9s.2-2.8.7-3.9c.5-1.2,1.1-2.2,2-3,.9-.8,1.9-1.5,3-1.9,1.2-.5,2.5-.7,3.9-.7s2.7.2,3.9.5c1.2.3,2.3.9,3.2,1.8l-2.4,2.4c-.6-.6-1.3-1-2.1-1.3-.8-.3-1.7-.5-2.6-.5s-1.8.2-2.6.5c-.7.3-1.4.8-1.9,1.4-.5.6-1,1.3-1.3,2-.3.8-.4,1.6-.4,2.5s.1,1.9.4,2.7c.3.8.7,1.5,1.3,2.1.5.6,1.2,1.1,1.9,1.4.8.3,1.6.5,2.6.5s1.6,0,2.3-.2c.7-.2,1.4-.4,1.9-.7v-4.3h-3.7v-2.9h6.9v9.2Z"/>
  <path class="st2" d="M42.8,39h6.3c.9,0,1.7,0,2.5.3.8.2,1.5.4,2.2.8.6.4,1.1.9,1.5,1.6.4.7.6,1.5.6,2.5s-.4,2.4-1.1,3.3c-.7.9-1.7,1.4-3.1,1.6l4.8,8h-3.9l-4.2-7.7h-2.4v7.7h-3.2v-18.1ZM48.5,46.6c.5,0,.9,0,1.4,0,.5,0,.9-.2,1.3-.3.4-.2.7-.4.9-.7.2-.3.4-.8.4-1.4s-.1-1-.3-1.3c-.2-.3-.5-.6-.9-.7-.4-.2-.8-.3-1.2-.3-.4,0-.8,0-1.3,0h-2.8v4.9h2.5Z"/>
  <path class="st2" d="M17.7,48.1c0-1.4.2-2.8.7-3.9.5-1.2,1.1-2.2,2-3,.9-.8,1.9-1.5,3-1.9,1.2-.5,2.5-.7,3.9-.7,1.4,0,2.7.2,3.9.6,1.2.4,2.2,1.1,3,1.9.9.8,1.5,1.8,2,3,.5,1.2.7,2.5.7,3.9s-.2,2.7-.7,3.9c-.5,1.2-1.1,2.2-2,3-.9.8-1.9,1.5-3,2-1.2.5-2.5.7-3.9.7-1.4,0-2.7-.2-3.9-.7-1.2-.5-2.2-1.1-3-1.9-.8-.8-1.5-1.8-2-3-.5-1.2-.7-2.4-.7-3.9ZM21.1,47.9c0,1,.1,1.9.4,2.7.3.8.7,1.5,1.3,2.1.5.6,1.2,1.1,1.9,1.4.8.3,1.6.5,2.6.5s1.8-.2,2.6-.5c.8-.3,1.4-.8,2-1.4.5-.6,1-1.3,1.3-2.1.3-.8.5-1.7.5-2.7s-.2-1.7-.5-2.5c-.3-.8-.7-1.5-1.3-2-.5-.6-1.2-1.1-2-1.4-.8-.3-1.6-.5-2.6-.5s-1.8.2-2.6.5c-.7.3-1.4.8-1.9,1.4-.5.6-1,1.3-1.3,2-.3.8-.4,1.6-.4,2.5Z"/>
  <path class="st2" d="M1.2,39h11.7v2.9H4.4v4.7h8v2.9h-8v7.5H1.2v-18.1Z"/>
  <path class="st1" d="M113.4,17.5c-1.2,6.7,2.2,8.1,7.8,16.2s-1.2,17.5-1.2,17.5c.5-7.6-.3-6.6-10-19.8-9.7-13.3,4.2-30.1,4.2-30.1,0,0-1,4.7,4.5,11.5,5.5,6.7,13.8,14.6,7.4,29.2,0,0,.4-7.3-4.9-13.7-5.3-6.4-3.8-3.8-7.8-10.7Z"/>
  <path class="st0" d="M104.2,22.4s-.7,7.1,7.6,16.8c8.4,9.6,6,15.3,4.5,17.9,0,0-.8-3.1-6.8-9.9s-10.1-15.7-5.3-24.8Z"/>
  <path class="st3" d="M.8,9.6h8.6v24.5h8.7V9.6h8.8V1H.8v8.7Z"/>
  <path class="st3" d="M50.4,1l-11.2,11.2V1h-8.7v33.1h8.7v-9.6l5.5-5.5-1.9,5,10.3,10.2h12.3l-18-18L62.6,1h-12.2Z"/>
  <path class="st3" d="M67.9,34.2h12.3c9.2,0,16.6-7.4,16.6-16.6S89.4,1,80.2,1h-12.3v33.1ZM76.6,9.9h3.7c4.3,0,7.9,3.5,7.9,7.8s-3.5,7.9-7.9,7.9h-3.7v-15.7Z"/>
</svg>