<?xml version="1.0" encoding="UTF-8"?>
<svg xmlns="http://www.w3.org/2000/svg" xmlns:xlink="http://www.w3.org/1999/xlink" version="1.1" viewBox="0 0 103.3 103.3">
  <defs>
    <style>
      .cls-1 {
        opacity: .2;
      }

      .cls-1, .cls-2, .cls-3, .cls-4, .cls-5 {
        isolation: isolate;
      }

      .cls-1, .cls-2, .cls-6 {
        fill: #302725;
      }

      .cls-2 {
        opacity: .2;
      }

      .cls-3 {
        opacity: .1;
      }

      .cls-7 {
        fill: url(#linear-gradient);
      }

      .cls-8 {
        fill: #fff;
      }

      .cls-5 {
        font-family: PlantagenetCherokee, 'Plantagenet Cherokee';
        font-size: 23.6px;
      }

      .cls-9 {
        opacity: .6;
      }

      .cls-6 {
        fill-opacity: 0;
      }
    </style>
    <linearGradient id="linear-gradient" x1="81.7" y1="5.5" x2="54.3" y2="57.7" gradientTransform="translate(0 106) scale(1 -1)" gradientUnits="userSpaceOnUse">
      <stop offset="0" stop-color="#000"/>
      <stop offset="1" stop-color="#000"/>
    </linearGradient>
  </defs>
  <!-- Generator: Adobe Illustrator 28.7.1, SVG Export Plug-In . SVG Version: 1.2.0 Build 142)  -->
  <g>
    <g id="Layer_2">
      <g id="belt">
        <g id="belt-icon">
          <g id="circle">
            <circle class="cls-8" cx="51.7" cy="51.7" r="51.7"/>
          </g>
          <g id="shadow" class="cls-9">
            <path class="cls-7" d="M103.3,51.7c0-.2,0-.4,0-.5l-12.5-12.5L11.8,51.9l12,12-1.8,13.4,25.9,25.9c1.2,0,2.5.2,3.8.2,28.5,0,51.7-23.1,51.7-51.6Z"/>
          </g>
          <polygon id="colour" points="90.8 38.7 61.2 38.7 51.3 38.7 41.4 38.7 11.8 38.7 11.8 51.9 28.2 51.9 12.3 67.8 22 77.2 43.4 55.8 51.3 55.8 59.2 55.8 80.6 77.2 90.3 67.8 74.4 51.9 90.8 51.9 90.8 38.7"/>
          <g id="stripe">
            <polygon points="69 46.3 65.8 43.3 90.8 43.3 90.8 46.3 69 46.3"/>
            <polygon points="33.7 46.3 36.9 43.3 11.9 43.3 11.9 46.3 33.7 46.3"/>
            <polygon points="60 48.4 60.5 44.7 86.9 71.1 84.8 73.2 60 48.4"/>
            <polygon points="42.7 48.5 42.2 44.7 15.8 71.1 17.9 73.2 42.7 48.5"/>
          </g>
          <g id="Overlay">
            <polygon class="cls-3" points="90.8 38.7 90.8 51.9 74.4 51.9 61.2 38.7 61.2 38.7 90.8 38.7"/>
            <polygon class="cls-3" points="11.8 38.7 11.8 51.9 28.2 51.9 41.4 38.7 41.4 38.7 11.8 38.7"/>
            <polygon class="cls-6" points="51.3 55.8 43.4 55.8 41.4 38.7 51.3 38.7 51.3 55.8"/>
            <polygon class="cls-1" points="51.3 55.8 59.2 55.8 61.2 38.7 51.3 38.7 51.3 55.8"/>
            <polygon class="cls-2" points="22 77.2 12.3 67.8 41.4 38.7 43.4 55.8 22 77.2"/>
          </g>
        </g>
      </g>
      <g>
        <g class="cls-4">
          <text class="cls-5" transform="translate(52.8 32.6)"><tspan x="0" y="0">I</tspan></text>
        </g>
        <g class="cls-4">
          <text class="cls-5" transform="translate(41.6 32.6)"><tspan x="0" y="0">I</tspan></text>
        </g>
      </g>
    </g>
  </g>
</svg>