<?xml version="1.0" encoding="UTF-8"?>
<svg id="Layer_2" data-name="Layer 2" xmlns="http://www.w3.org/2000/svg" viewBox="0 0 137.22 158.87">
  <defs>
    <style>
      .cls-1 {
        fill: #f9f8f6;
      }

      .cls-2 {
        fill: #e07752;
      }

      .cls-3 {
        fill: #febb83;
      }

      .cls-4 {
        fill: #bbbfca;
      }

      .cls-5 {
        fill: #f9f9f6;
      }

      .cls-6 {
        fill: #f4f4f5;
      }

      .cls-7 {
        fill: #838c9a;
      }

      .cls-8 {
        fill: #f7f7f8;
      }

      .cls-9 {
        fill: #e88f65;
      }

      .cls-10 {
        fill: #8791a1;
      }

      .cls-11 {
        fill: #d66643;
      }

      .cls-12 {
        fill: #97a2b4;
      }

      .cls-13 {
        fill: #ced0d7;
      }

      .cls-14 {
        fill: #b55b40;
      }

      .cls-15 {
        fill: #faaa7c;
      }

      .cls-16 {
        fill: #f3a278;
      }

      .cls-17 {
        fill: #cdcfd7;
      }

      .cls-18 {
        fill: #8e98aa;
      }

      .cls-19 {
        fill: #9ea7b8;
      }

      .cls-20 {
        fill: #e89166;
      }

      .cls-21 {
        fill: #545d69;
      }

      .cls-22 {
        fill: #bec2cd;
      }

      .cls-23 {
        fill: #4a545f;
      }

      .cls-24 {
        fill: #848c9b;
      }

      .cls-25 {
        fill: #aeb4c1;
      }

      .cls-26 {
        fill: #111115;
      }

      .cls-27 {
        fill: #d5623c;
      }

      .cls-28 {
        fill: #f5a477;
      }

      .cls-29 {
        fill: #bac0cb;
      }

      .cls-30 {
        fill: #b8bcc7;
      }

      .cls-31 {
        fill: #2a2b30;
      }

      .cls-32 {
        fill: #dd7e56;
      }

      .cls-33 {
        fill: #c4c8d4;
      }

      .cls-34 {
        fill: #febb84;
      }

      .cls-35 {
        fill: #121317;
      }

      .cls-36 {
        fill: #c85637;
      }

      .cls-37 {
        fill: #b7573d;
      }

      .cls-38 {
        fill: #b55035;
      }

      .cls-39 {
        fill: #101115;
      }

      .cls-40 {
        fill: #cdced7;
      }

      .cls-41 {
        fill: #c7c9d1;
      }

      .cls-42 {
        fill: #7c8796;
      }

      .cls-43 {
        fill: #8f97a4;
      }

      .cls-44 {
        fill: #b65035;
      }

      .cls-45 {
        fill: #c3c8d2;
      }

      .cls-46 {
        fill: #c65335;
      }

      .cls-47 {
        fill: #b3543b;
      }

      .cls-48 {
        fill: #bbc0cc;
      }

      .cls-49 {
        fill: #bdc2cd;
      }

      .cls-50 {
        fill: #9fa9b9;
      }

      .cls-51 {
        fill: #111114;
      }

      .cls-52 {
        fill: #9ea8b8;
      }

      .cls-53 {
        fill: #c6c9d1;
      }

      .cls-54 {
        fill: #babec9;
      }

      .cls-55 {
        fill: #21252d;
      }

      .cls-56 {
        fill: #e78c5e;
      }
    </style>
  </defs>
  <g id="Layer_1-2" data-name="Layer 1">
    <g>
      <polygon class="cls-35" points="42.19 128.25 40.2 122.42 49.01 77.73 83.29 73.88 96.93 120.22 94.07 126.58 93.9 139.33 58.12 152.59 43.86 145.08 42.19 128.25"/>
      <g id="_9iFKSC" data-name="9iFKSC">
        <g>
          <path class="cls-15" d="M57.63,114.82c.3-.01.93.16,1.01-.17-.5-.35-1.17-.91-1.68-1.18-.25-.14-3.36-.97-2.69-1.67.47-.5,5.89-1.32,6.85-1.32,2.51,0,5.09.95,7.46,1.28,1.89.26,3.9.07,5.92.46,4.36.86,6.94,3.99,11.49,3.25,2.75-.45,2.44-5.06,3.21-7.03l.33-1.01c-.99-3.37-2.59-6.95-4.63-9.8l-1.07-.26c-2.18-4.03-10.23-10.57-14.9-10.41-5.91.21-13.72,5.85-16.33,11.08l-.96.11c-1.62,1.36-3.84,6.96-4.46,9.12l.38.84c.74,1.88.25,4.78,2.03,6.2,2.17,1.74,3.11.68,5.19.52.95-.07,1.91.04,2.85,0Z"/>
          <path class="cls-40" d="M57.97,36.91c-.17,2.09,2.67,7.08,4.46,4.45,3.15-.21,6.31-.24,9.46-.1,4.24,3.41,7.02-4.99,7.94-8.15.01-.04-.15-.13-.37-.23-.02,0-.11-.53-.33-.33-.6.54.11,3.15-2.35,2.35v-1.34c-.21.33-.66,1.29-.91,1.35-3.84,0-7.68-.01-11.52,0-1.8.13-3.59.24-5.37.34.1-.64-.88-.54-1.01,0-.48-.45-.47-.28-.34.34-.93.61-.76,1.24.34,1.34Z"/>
          <path class="cls-19" d="M64.35,34.89c-1.23,0-2.47-.02-3.69,0-.54,0-1.4-.2-1.68.34,1.7,0,3.87.28,5.37-.34Z"/>
          <g>
            <path class="cls-33" d="M17.67,40.94c.23-.78-.01-.93,0-1.34-2.19.14-4.25-.6-6.04,1.01.27-.11.31.33.34.34.73,1.27,4.72.92,5.71,0Z"/>
            <path class="cls-48" d="M118.75,86.94c.94,1.25,2.14,2.21,3.16,3.39l3.89,6.18c-.97-6.45-2.7-13.27-7.73-17.8-.05-.26.31-.2.5-.17,3.12.51,8.28,5.91,9.84,8.63l1.4,2.79c-1.03-5.38-4.35-10.83-9.4-13.1.58.82.33.75-.5.67-2.45-.24-4.09-.6-6.56.34.71,3.19,3.03,5.5,4.93,8.01.28.38.34.91.44,1.05Z"/>
            <path class="cls-50" d="M119.42,40.6c.4,1.41,1.3,3.07,2.01,4.37-.11,1.14.23,1.82,1.01,2.01,3.1-4.42,4.84-8.03-3.02-6.38Z"/>
            <path class="cls-30" d="M117.74,75.86c2.16-.74,4.91-.26,7.12.1,3.14.51,6.11,1.63,9,2.92-1.17-1.41-3.4-2.83-5.04-3.69l-7.89-1c-.9-.16-5.41.25-5.87.67-.58.53.07.58.51.66.74.13,1.37.12,2.18.35Z"/>
            <path class="cls-4" d="M118.75,72.5c2.58-1.48,6.1-2.03,9.07-2.02-.12-.64-.7-.56-1.16-.68-1.15-.32-3.01-.59-4.21-.66l1.01.67c-1.15.22-5.07,1.3-5.7,2.03-.66.76.73.64,1,.67Z"/>
            <path class="cls-54" d="M19.01,75.86c.57,0,1.82-.67,2.69-.34-1.12-1.45-3.58-.7-5.24-1.31l-8.19.97c-1.85,1.04-4,2.44-5.37,4.03,1.44-.64,2.79-1.4,4.3-1.91,5.03-1.73,6.9-1.4,11.82-1.44Z"/>
            <path class="cls-12" d="M15.99,44.97c.46-1.08,1.4-3.07,1.68-4.03-1.78-.19-4,.26-5.71,0-.59.55-.14.93.04,1.46.62,1.82,1.79,4.09,2.99,5.59.55-.8.88-1.81,1.01-3.02Z"/>
            <path class="cls-4" d="M16.66,72.5c.36-.03,2.4.31,2.01-.5-.36-.75-4.34-1.85-5.37-1.85l1.34-1.01c-1.32,0-3.67.29-4.93.63-.58.16-.93-.24-.78.72,2.3-.1,4.5.61,6.65,1.26.57.17,1.27-.23,1.07.76Z"/>
          </g>
          <path class="cls-14" d="M83.83,97.36c-1.05-4.05-3.04-8.09-5.04-11.75-2-.54-3.93-1.39-5.79-2.57-4.69-2.73-9.15.2-12.6,3.49-1.63,1.7-3.33,3.18-5.11,4.45-1.02,2.28-2.35,4.52-2.69,7.05,3.85-4.58,11.98-11.78,18.41-10.18,3.14.78,10.66,6.95,12.82,9.51Z"/>
          <path class="cls-2" d="M55.28,90.97c.52.52.08.92.84.34,3.71-2.83,8.44-9.3,13.68-8.67,2.46.3,5.69,2.76,7.98,3.49.81.26.6.04,1.01-.53-3.06-5.61-6.74-9.79-10.41-14.78-.11.11-.21.24-.34.34-5.39,4.08-10.02,13.66-12.76,19.81Z"/>
          <path class="cls-26" d="M33.12,62.09c.56-.88.56-1.44,0-1.68.53-1.51.42-2.52-.34-3.02.12-3.58-.23-7.12-1.03-10.65.15-1.19-.08-1.56-1.33-1.11-.56.18-1.11.23-1.68.34-1.3.33-1.16,4.53,0,5.04.03.39.33.81.34,1.01.06,1.22-.04,2.47,0,3.69v14.1c1.22-3.16,1.81-5.03,4.03-7.72Z"/>
          <path class="cls-51" d="M107.67,55.04c-.12-1.02-.06-2.63,0-3.69.05-.95.14-2.22.67-3.02.84-.82.84-1.53,0-2.35-.73-.2-1.97-.69-2.69-1.01-.34,3.41-.59,6.86-1,10.27-.05.44-.34.75-.35.82-.88.71-.99,1.94-.34,3.69-.88.17-.99.84-.34,2.01,2.47,2.74,2.81,4.42,4.03,7.72v-14.44Z"/>
          <g>
            <g>
              <path class="cls-56" d="M100.62,22.13c.8-1.77,3.63-8.73,3.36-10.23-.12-.65-.71-1.39-1.47-1.17s-.53,1.55-1.22,1.66c.54-1.32,2.13-6.03-.81-5.39-.64.14-.17,1.96-.87,2.03.02-1.97,1.42-5.1-1.67-5.02l-1.36,3.01c.34-1.48,1.79-5.91-1.11-4.97-1.31.43-1.6,3.29-1.91,4.49-.14.56.34.98-.68.82-.32-2.34,2.99-5.52.12-7-1.85-.96-3.3.18-4.08,1.88-1.79,3.87-2.11,7.46-2.76,11.51l.17.78c5.49.39,10.18,3.56,13.82,7.62h.45Z"/>
              <path class="cls-44" d="M100.62,22.13c-2.95-2.66-6.62-6.65-10.6-7.7-1.36-.36-2.65-.16-3.84-.69-.27,1.67-.93,3.33-1.01,5.04,5.25-4.61,11.7-.69,15.11,4.03.1-.23.23-.44.34-.67Z"/>
              <g>
                <path class="cls-56" d="M39.83,19.11c2.4-2.37,6.59-4.4,10.07-4.71l.67-.66c-.22-1.48-.14-3.18-.49-4.72-.21-.93-2.4-7.68-2.71-8.03-.93-1.05-3.73-1.05-4.35.33-.66,1.47,1.61,4.4.83,6.37l-.76-3.09c-.42-1.03-1.05-3.22-2.59-2.46s-.1,3.6,0,4.88c-1.03-.65-.81-3.66-2.69-2.52-2.15,1.29.92,6.3.68,6.55-.91.94-1.35-3.15-1.5-3.36-.79-1.14-2.01.08-2.13,1.28-.06.63.39,1.94.27,2.09-.09.11-1.52-.91-1.95,1.26s2.54,7.83,3.3,10.16c1,.19,3.61-2.35,3.36-3.36Z"/>
                <path class="cls-38" d="M51.59,18.77c-.37-1.67-.76-3.35-1.01-5.04-3.93-.21-7.04,2.01-10.05,4.23-.14.11-1.38.94-.7,1.15,3.57-2.76,8.09-3.4,11.75-.34Z"/>
              </g>
            </g>
            <g>
              <g>
                <path class="cls-3" d="M23.04,51.35c3.04.87,5.59-1.64,4.74-4.68.54.07.82-.11.97-.69.44.92,1.66.69,1.68-.34,1.2.38,3.06-.48,4.24-1.34l1.62-1.05c1.03-1.93,1.65-4.05,1.85-6.35,1.99-.51,1.89-5.52-.67-4.7-.8-.47-1.68.03-2.63,1.5l-2.07,3.21c-.29.1-.29.21,0,.34-1.23,1.32-2.91,2-5.04,2.01.12-.54.11-1.35-.03-2.42-.98-.92-.33-1.07,1.98-.45-1.39,2.36,1.52,1.68,2.76.51,1.39-1.21,3.84-4.11,1.54-5.22-3.9-1.2-7.7-2.54-11.22-4.34l-1.74.49c-.65.46-1.12.45-1.85,1.34-1.81,2.21-1.41,7.51-1.5,10.42-.94.14-.72.99,0,1.34-1.11.29-2.41,3.11-1.68,4.03-1.41,2.42.98,4.42,2.93,5.6.94.57,3.61,2.04,4.12.78Z"/>
                <path class="cls-32" d="M37.48,32.21c.53-.84.15-2.99-1.01-3.02-.08-.14-1.89-2.26-2.01-2.35-.03-.02-.41.32-.85.03-2.2-1.44-2.32-2.23-5.36-2.04-2.69.17-5.16,1.55-7.23,3.02,1.91-.22,3.38,1.2,5.04,1.84,2.72,1.04,5.62,1.92,8.39,2.87-.3,1.59-1.12,3.05-2.02,4.36.1.27.21.26.34,0,1.37-.76,3-3.89,4.7-4.7Z"/>
                <path class="cls-36" d="M23.38,52.69c1.93.16,3.94.11,5.71-.67.84-.45.57-1.03-.34-1.01l-.72-.29c-1.42.8-3.4.71-4.99.63-2.98-.06-7.5-3.04-7.05-6.38-.28.65-1.6,1.43-1.01,3.02,1.89,2.36,5.36,4.44,8.4,4.7Z"/>
                <path class="cls-47" d="M27.74,39.26c2.19,0,3.87-.68,5.04-2.01v-.34c-.08.05-.24-.04-.34,0-.86.39-1.7.84-2.69.67l1.01-1.67c-1.24-.29-2.88-.36-4.03-.84s-1.49-1.66-2.69-1.84c.86,1.16,2.85,2.98,3.23,4.36.34,1.23-.89,1.63.47,1.68Z"/>
                <path class="cls-20" d="M28.75,51.01c-.11-1.56-.33-3.65,0-5.04-.37.07-2.02-.15-2.01.5,0,.07.64.38.61,1.25-.07,2.2-2.22,3.67-4.31,3.62,1.91.65,4.05,1.1,5.71-.34Z"/>
                <path class="cls-32" d="M32.78,37.24l-5.04,2.01c2.04.08,4.77.64,5.04-2.01Z"/>
              </g>
              <g>
                <path class="cls-34" d="M115.39,51.01c.85,1.33,3.53-.88,4.43-1.77,1.17-1.16,2.51-2.6,1.62-4.27.53-1.09-.9-3.96-2.01-4.37-.06-.22-.31-.48-.34-.67-.61-4.47,1.64-8.9-2.69-12.09-1.57-.76-3.25-.39-5.06,1.13-3.17.57-6.23,1.82-9.08,3.28l-.05.85c.89,1.32,1.82,2.59,2.76,3.82.15.15.17.27,0,.34l-2.95-4.43c-.68-.68-2.03-1.86-2.76-.94-2.02-1.4-2.34,3.88-.34,4.37-.84,1.51.79,4.63,1.87,6.01.99,1.26,3.3,3.48,4.85,2.73-.05,1.11,1.92,1.83,2.69,1.01-.06.59.16.79.71.67.06,3.07,3.42,5.52,6.34,4.37Z"/>
                <path class="cls-32" d="M104.98,36.91l-2.35-4.36c1.91-.41,3.61-1.45,5.44-2.12,1.08-.39,2.36-.38,3.53-.84,1.6-.63,2.74-2.23,4.8-1.75-1.62-1.19-5.97-3.29-7.93-3.32s-4.34,1.83-5.84,2.99c-.9.69-1.66.96-2.35,2.01-.47.72-.62,1.62-1.01,2.35,2.4.78,4.07,3.49,5.71,5.37.28-.1.28-.21,0-.34Z"/>
                <path class="cls-46" d="M113.71,52.69c3.97-.41,6.59-2.66,8.73-5.71.01-.89-.67-1.41-1.01-2.01-.22,2.73-3.36,5.83-6.04,6.04-2.33.6-4.38.43-6.15-.51-.07-1.01-.37-1.74-.9-2.18-1.22-.46-1.84,2.8-.67,3.02,1.52,1.64,3.96,1.56,6.04,1.34Z"/>
                <path class="cls-9" d="M115.39,51.01c-2.07.16-4.65-1.17-5.46-3.11-.27-.65-.19-1.86-.25-1.93-.1-.11-1.04.08-1.34,0,0,.78,0,1.57,0,2.35.02,1.84-.18,2.96,2.01,3.54,1.31.35,3.83-.11,5.05-.85Z"/>
                <path class="cls-37" d="M104.98,37.24c.22.26.32.82.66,1.17,1.22,1.25,2.79.78,4.37.84-.65-2.14,1.45-4.17,2.69-5.7-.96.07-1.24.95-2.16,1.36-.73.33-3.09.54-3.22.65-.16.13,1.07,2.94-2.35,1.34v.34Z"/>
              </g>
            </g>
          </g>
          <g>
            <path class="cls-5" d="M119.09,39.93c-.74.55-.56.8.34.67l.77.53c5.64-1.15,4.67,1.1,2.21,4.72l.04,1.13-.94.16c-1.71,2.86-4.34,4.27-7.48,5.06l-.3.49-2.48.29c-.46.4,2.26,10.83,2.8,11.87,1.8,3.48,4.13,4.04,7.74,4.3.1.64.37.6.67,0,.68.33,1.32.63,1.93.9-1.78.39-3.52.99-5.23,1.63-.31.11-.4.48-.39.83l.72.74c3.18.34,6.3.99,9.36,1.94-.12.62.2,1.06.97,1.32-3.73-1.06-7.84-2.07-11.68-1.45l-.37.81c-.06,1.05,2.01,1.41,2.69,1.01.43.88,1.19,1.6,2.29,2.15,2.68,2.16,6.96,8.1,1.5,2.22-.48-1.05-7.01-5.06-6.63-2.42,3.72,4.09,6.02,8.93,6.93,14.4-1.29-2.3-2.88-4.37-4.85-6.19l-.93-.08c-.78-1.25-1.68-2.03-2.69-2.35-.28-.81-1.23-.21-1.16.51,1.42,3.38,2.62,6.87,3.6,10.45-5.51-13.65-16.25-27.18-29.19-34.29-3.88-2.13-15.02-6.26-19.05-5.05-.78.23-.98.53-.49,1.25,5.22,6.25,10.13,12.72,14.73,19.4,4.27,8.18,8.35,16.42,12.23,24.72,2.67,6.02,2.4,12.47.21,18.63l-.34,2.99c-.32.15-.43.6-.34,1.34-.87.06-1.65.51-2.35,1.34.03.26-.14.7.17.68,5.5-.63,10.98-1.58,16.28-3.2,16.21-4.94,17.16-11.72,21.66-26.7,1.4-4.67,2.84-9.71,4.03-14.44,1.55-6.1,1.63-6.19-.16-12.27-2.37-8.04-5.6-18.92-8.73-26.53-1.98-4.81-3.29-3.35-8.07-3.52Z"/>
            <path class="cls-5" d="M11.63,40.6c-1.1.99-1.87,3.88-2.44,5.45-2.8,7.72-6.27,17.36-8.4,25.18-.92,3.4-1.05,4.76-.29,8.2,1.03,4.63,2.48,9.77,3.76,14.37,2.49,8.95,4.83,21.27,13.52,26.11,7.05,3.93,16.16,5.53,24.07,6.65.05-.21-.05-.5,0-.67-.21-.63-.99-1.25-1.68-1.01-.06-1.09-.29-1.99-.67-2.69l.21-2.54c-3.11-9.42-1.91-17.83,4.25-25.86l-.1-1.15.6-.15c3.97-10.25,9.26-20.56,17.34-28.27l-.48-1.13c.4-.91-1.01-2.92-2.01-2.69l-.86-.53-4.54.76c2.23-1.47,3.94-3.31-.09-3.05-13.52.88-28.17,21.46-33.56,32.32,1.24-2.83,2.02-5.68,2.36-8.56-1.31-1.14-8.76,9.21-9.51,10.84.99-4.91,3.16-9.52,6.43-13.32.13-.31.22-.58.12-.75-.89-1.53-8.49,3.91-9.25,5.42,1.54-2.49,3.26-5.02,6.13-5.91l.13-.78c.68.53,2.71.17,2.35-1.01l-.69-.67c-3.73-.1-7.46.02-11,1.35.59-.33,1.02-.6.94-1.36,2.48-.8,5-1.44,7.56-1.92l.84-.77c.84-.04.92-.72.15-1.03-1.68-.41-3.32-.89-4.92-1.43.96-.1,1.88-.4,2.75-.9.19.64.48.64.67,0,4.77-.19,6.46-.79,8.09-5.45.42-1.21,2.54-10.42,2.13-10.8l-2.16-.2-.46-.71c-2.81-.33-5.22-1.94-7.08-4.02l-.86.02c-.79-2.42-1.79-4.77-3.02-7.05.46-.59.28-.79-.34-.34Z"/>
            <path class="cls-1" d="M68.71,56.72c.1-.62-.3-.86-.67-.34l-1.18-.71c-2.38.12-4.87.42-7.09,1.19.04-.72-.81-1.24-1.46-.81-.14.39-.26.82-.13,1.24.51,1.72,3.25,5.37,4.83,6.15-.05.71.25,1.24.66,1.77,1.49,1.93,3.03,3.88,4.71,5.62l.05.82c3.12,4.27,6.15,8.63,9.09,13.07l1.27.89-.05,1.32c1.65,3.51,3.34,6.99,5.09,10.43,2.93,3.47,3.78,7.04,5.37,11.08.12.31.21.67.34,1.01.9.55,1.77,1.16,2.61,1.83l.74-.15c.22.2.64.37.73.2.89-1.53.04-9-.24-11.18-2.08-16.61-13.52-30.59-23.91-43.08-.16-.19-.44-.28-.76-.35Z"/>
            <path class="cls-1" d="M46.89,109.44c.23-.43.48-.89.67-1.34,1.77-4.22,1.84-6.27,5.04-10.07,1.08-2.01,2.08-4.06,3.01-6.15l-.33-.9.92-.47c2.75-6.96,6.63-13.07,11.64-18.32l.2-1.02c-.45-1-4.34-6.5-5.17-6.89-.06-.03-1.22-.17-1.28-.15-.81.24-8.43,10.68-8.94,11.51-3.24,5.29-5.68,10.3-7.7,16.17-.14.42,0,.83.25,1.19-.22.17-.44.36-.61.57-1.38,1.66-2.33,16.75-1.54,17.31.22.16.55.04.81-.08.97.03,1.98-.42,3.02-1.34Z"/>
            <path class="cls-52" d="M86.85,35.9c1.43.72,3.14,1.09,5.14,1.09l3.27,1.06c1.47.32,3.89-.01,3.68-1.81-.33-1.16-1.02-2.56-.5-3.7.17-.38.78-.55.84-.66.99.32,1.72-1.77,1.01-2.35-.42-1.57-3.31-3.02-4.9-3.7-3.75-1.6-7.41-1.35-11.12.13.31-.84.24-1.63-.21-2.37,1.26-1.89,1.3-3.04.11-3.46-3.97,4.54-4.48,8.83-7.39,13.43-1.24,2.12.77,3.11,1.91,1.19.2-.76.46-1.38.78-1.86.1.14.21.26.33.28.22.03.76-2.18.76-2.57.2-.58,1.51-.18,2.44.27,1.04.51,1.99,1.25,2.85,2.02-.39.77-.03,2.19.67,2.69.02.35.14.46.34.34Z"/>
            <path class="cls-53" d="M102.63,27.51c-.53-1.54-1.4-3.39-2.35-4.7-1.07-2.22-4.96-5.56-7.45-6.41s-6.8-.36-7.66,2.38c-.32.28-.69.97-1.01,1.34.75,1.24-.75,2.88-1.01,3.87-.03.11,1.42.16.16,1.85-.1.13-1.91.31-1.16,1.33.18.25,4.89-1.53,5.91-1.64,5.63-.63,7.78,1.16,12.22,3.99.83.31,2.78-1.16,2.35-2.01Z"/>
            <path class="cls-41" d="M36.48,29.19l1.1.08c4.9-3.27,10.74-4.19,16.18-1.67.62.13.9-.09.81-.7l-2.64-5.76c.55-.21.13-.66,0-.58-.06.04.37,1.1.68-.09v-.34c-.32-.36-.7-1.08-1.01-1.34-2.4-4.27-9.07-3.03-11.75.34-1.03.79-2.64,2.31-3.36,3.36-.76,1.11-1.51,3.07-2.01,4.37-.62.82,1.09,2.75,2.01,2.35Z"/>
            <path class="cls-42" d="M58.97,35.23c.59-.1,1.15-.21,1.68-.34-1.51-4.1-3.65-8.44-6.04-12.09-.7-.58-1.38-1.37-2.01-2.35h-1.01c-.12.09.29.47.34.67,1.83,4.39,3.67,8.38,5.91,12.55-.75.5-.54,1.23.13,1.55h1.01Z"/>
            <path class="cls-11" d="M96.59,123.21c1.29-2.01-1.64-11.96-3.16-12.12-.18-.02-.36,0-.54.03-.87-1.13-1.85-1.9-3.36-1.68.65,1.71,1.82,3.73,2.35,5.37.04-.65.46.06,1.24,2.13,1.52,2.15,1.96,4.61,2.34,7.16l.79.45c.3-.53.2-.98.34-1.34Z"/>
            <path class="cls-28" d="M41.85,125.9c.55-1.72.57-4.18,1.03-6.19.64-2.75,1.79-5.57,2.66-8.25.4-.41.08-.93-.48-.75-1.32.42-6.64,11.99-4.89,14.18.48.66.69,1.13,1.68,1.01Z"/>
            <path class="cls-27" d="M40.17,124.89c.42-.66-.06-1.55.03-2.47.5-5.37,3.21-6.82,5.04-11.29.14.04.28.33.3.33.22-.04,1.14-1.63,1.34-2.01-1.2-.27-2.27.5-3.02,1.34l-.83-.04c-2.01,3.39-3.4,7.52-3.54,11.46.21,1.29-.28,1.36.67,2.69Z"/>
            <path class="cls-19" d="M54.61,22.8c-.72-1.1-1.12-1.69-2.01-2.69v.34c.23.72,1.17,2.04,1.68,2.53.27.27.35.16.34-.18Z"/>
            <path class="cls-7" d="M118.75,86.94l.49-.62c-2-2.5-3.68-5.16-5.05-7.99,1.32-.47,2.77-.44,4.15-.38,1.38.38,3.93.52,2.09-1.08-.97-.44-1.65-.71-2.69-1.01-.03-.35-.08-.73-.46-.82.12-.71,9.82.46,10.97.76l.56-.61c-3.48-1.84-6.19-2.33-10.07-2.69l-.12-.58c1.5-.75,3.1-1.21,4.74-1.56.69-.55.38-.95-.92-1.22-.22-.01-.45,0-.67,0-1.08-.2-2.18-.36-3.26-.44-4.43-.35-5.7-.69-7.72-5.15-1.17-2.59-1.93-5.38-2.4-8.17l-.72-.34c-.26,0-.66.06-.67.23-.33,4.5-.11,9.79.67,14.21,1.7,4.61,3.43,10.16,6.57,14.08,1.29,1.6,1.14-.04,1.32.02.46.17.38.83.51,1.01.74,1.07,1.68,1.59,2.69,2.35Z"/>
            <path class="cls-22" d="M121.77,69.15c-1.56-.73-2.98-.74-4.54-1.67-4.53-2.67-3.64-9.92-5.52-14.29l2.01-.5-.25-.42c-1.92.24-3.81.27-5.34-1.09l-.46.17c-1.09.21-1.14,3.55,0,3.69.42,3.44,2.47,10.59,5.2,12.77,3.03,2.42,5.51,1.34,8.91,1.33Z"/>
            <path class="cls-24" d="M29.09,69.82c.72-4.48.95-9.05.67-13.71l-.67-.39-.83.3c-1.59,8.13-3.72,13.52-12.94,13.13-.22,0-.45,0-.67,0-1.54.29-2.02.77-1.42,1.43l3.51.88c.37.22.35.57-.07,1.05-3.14.28-5.68,1.16-8.4,2.69l.47.62,7.68-.93c.56,0,3.58.27,2.6.99-.72.49-1.57.69-2.35,1.01-.19,1.01.51.65,1.16.67,1.97.07,3.99-.26,5.89.34l-.84,3.02c4.21-2.5,4.62-6.95,6.21-11.08Z"/>
            <path class="cls-45" d="M43.86,110.79c-.56-.35-.34-1.27-.34-1.84-.06-5.34.29-10.79,1.68-15.96.16-1-.83-1.15-1.34-.34-1.9,3.23-3.99,5.96-5.28,9.66-2.84,8.14-.32,12.16.91,19.89,1.16-2.98,2.3-9.09,4.37-11.42Z"/>
            <path class="cls-49" d="M29.09,55.71c.98-.83,1.05-2.9,0-3.69-.73-.15-1.62-.05-2.68.31-1.31-.21-2.32-.09-3.02.37l1.68.34c-.97,3.5-1.6,12.5-4.8,14.51-1.51.95-3.37.89-4.94,1.61,3.04,0,4.26.97,7.47-.76,4.88-2.64,4.57-8.2,6.3-12.67Z"/>
            <path class="cls-25" d="M45.21,92.99c1.93-7.12,6.6-15.84,10.94-21.8.71-.98,5.37-6.83,5.97-6.72.5.09,5.41,5.68,5.92,6.69.49.45.68.25.34-.34-1.76-2.39-3.62-4.93-5.37-7.39-.63-.24-1.19-.35-1.68-.34.13.77-.26,1.02-.66,1.52-5.55,6.87-9.7,11.45-13.4,19.85-1.24,2.82-1.83,5.51-3.41,8.18l1.34.34Z"/>
            <path class="cls-29" d="M68.04,56.39l.07-.66c-2.12-3.13-4.05-6.44-5.76-9.74h-1.02c-2.07-.7-5.59.37-7.05,2-.37.6-.17.81,0,1.34l3.36,5.71c.23.3.3.61.67,1.01.4.43.92.72,1.24,1.37,2.82-.47,5.61-1.27,8.5-1.03Z"/>
            <path class="cls-19" d="M38.15,36.91l-.05,1.05c-1.1,2.45-1.39,5.01,1.39,1.97l1.04.27c2.65-1.22,5.35-2.43,8.26-2.85l.77-.77.62-.56c-.21-2.94,2.35-4.46,4.8-5.29l1.84,4.65.8.2c0-.21.34-.31.34-.34-.03-.22-.46-.59-.34-.67l1.34-.17-7.05-13.27c.59,2.38,1.41,3.83,2.35,6.04-6.25-3.1-12.27-1.77-17.79,2.02.4.74.47,2.23,1.01,3.02.39.57,1.2.59,1.35,1.53.18,1.06-.4,2.19-.68,3.17Z"/>
            <path class="cls-10" d="M39.5,39.93c-.54.24-1.45,1.07-2.01.67-.2-.14,1.59-3.05.67-3.69-.34,1.21-1.64,5.1-2.34,5.89-.42.47-4.64,2.61-5.38,2.84,1.08-.19.56.55.66,1.17.54,3.51,1.2,7.17,1.69,10.58l.42-.18c1.32-5.94,3.5-11.4,6.54-16.39l-.25-.89Z"/>
            <path class="cls-18" d="M105.65,44.97c-4.4-1.96-5.43-4.25-6.72-8.73-2.43,2.59-4.69.46-6.96.08-1.69-.28-3.47.22-5.13-.42-.4.18-.39,1.11.07,1.34,4.29.43,7.95,1.84,10.97,4.23,2.37,4.49,4.24,9.27,5.63,14.33l.79.25c.24.11.53.21.73.07.68-.48,1.29-9.39.61-11.16Z"/>
            <path class="cls-39" d="M82.82,44.63c-.33-.73-1.08-1.15-2.25-1.27l-2.78-1.67,1.14-1.86c-.29-1.29,2.16-8.1,2.56-8.43.04-.03.9.2,1.07.26,1.23,1.1,2.32,1.5,3.27,1.22-1.09-1.62-3.27-2.67-5.17-3.05-.46.08-.72,3.05-1.21,3.05.09,1.62-3.82,8.45-4.91,8.66-.66.13-1.71-.83-2.63-.95-1.06-.14-9.52-.09-9.94.18-.38.25-.1,1.07-.82.84-1.5-1.24-2.39-2.96-3.2-4.7-1.22,0-1.02,1.09-.83,2.08,1.38,2.56,1.18,3.95-.6,4.17l-3.76,1.35c.09.33.06.61-.18.79-.42-.2-.84-.23-1.29-.17-2.41.32-13.93,8.45-13.31,10.4.1.3.48.32.83.18,3.95-3.6,8.86-5.31,13.77-7.05.49-.17.96-.43,1.68-.67,2.35-.77,4.58-1.52,7.05-2.01.39-.08.7-.24,1.34-.34,10.72-1.54,28.03,3.09,35.93,10.75,2.38-.02-.68-3-1.69-3.93-3.79-3.5-8.34-6.05-13.04-8.11l-1.05.29Z"/>
            <path class="cls-17" d="M104.31,56.05l-3.87-11.41c-1.56-3.78-3.01-5.16-6.88-6.56-1.83-.66-5.31-.93-6.49-1.51-.4-.19-.16-.45-.22-.68-.04-.14-.2-.27-.34-.34l-.73.39c-.41,2.04-1.16,4.02-2.01,5.91l.38.75.91.76c8.75,1.01,14.62,8.11,17.92,15.77l.98.59c.16-1.23.19-2.52.34-3.69Z"/>
            <path class="cls-55" d="M82.82,44.63c.95.36,1.9-1.17,1.34-2.01.81-1.58,2.22-5.36,2.35-7.05.11-1.37.04-1.62-.67-2.69l-3.03-1.84-2.01-.51c.05,2.33-1.7,4.33-2.21,6.36-.23.92-.03,1.84-.3,2.72-.25.83-1.46,1.55-1.18,2.65,1.26.11,1.97,1.15,3.17,1.7.86.39,1.77.35,2.53.66Z"/>
            <path class="cls-55" d="M52.59,45.3c1.14-.48,5.38-1.75,5.96-2.44.87-1.02-1.7-4.31-.59-5.96-.2-.44-.36-.84-.34-1.34l-2.2-5.71c-3.27,1.07-6.38,2.73-5.86,6.71l-.56.65c.45,1.75,1.08,3.44,1.74,5.13l.84.27c-.35.79-.02,1.68,1.01,2.69Z"/>
            <path class="cls-43" d="M103.97,59.74c-3.62-8.68-9.79-16.41-19.81-17.13-.31.62-1.02,1.34-1.34,2.01,5.18,2.13,11.85,5.84,15.44,10.24.24.29,1.05,1.24.34,1.51,1.59,1.54,3.52,3.7,5.04,5.37.28-.65.24-1.34.34-2.01Z"/>
            <g>
              <path class="cls-29" d="M96.59,123.21c4.59-12.18,3.31-18.03-2.74-28.99-3.68-6.68-6.31-13.87-10.55-20.34-4.02-6.14-9.47-11.07-13.57-17.15,5.69.19,11.16,1.31,16.35,3.63,8.2,3.67,18.77,13.42,23.89,20.78,5.24,7.54,8.97,16.7,12.16,25.29l.26-1.1c-2.57-6.53-3.92-13.46-6.57-19.96-.24-.58-.88-.85.27-.77.85-.49-.33-1.83-1.14-1.26-2.8-4-4.9-8.4-6.3-13.21l-.95-.65c-.29-2.94-1.04-5.49-3.11-7.7l-.91-.02c-.19-1.51-2.79-4.51-4.05-5.34l-.99-.03c-1.97-3.48-6.65-5.66-10.36-7.22-7.69-3.25-16.4-4.99-24.73-4.3l-.85.78-.09.76c1.91,3.6,3.95,7.04,6.13,10.32,13.35,17.47,24.77,28.56,24.52,52.56,0,.57.21,1.49-.34,1.84,2.19,2.82,3.52,8.55,3.69,12.09Z"/>
              <path class="cls-23" d="M68.71,56.72c1.12.07.58-.17.21-.71-2.3-3.34-4.59-6.62-6.25-10.37-.39-.93-1.41-.65-1.34.34.79-.09,1.27,1.32,1.61,1.91,1.59,2.73,3.21,5.99,5.1,8.5.1.13.57.2.67.34Z"/>
              <path class="cls-8" d="M95.58,60.75c-3.46-3.16-8.15-5.44-12.76-6.37l12.76,6.37Z"/>
            </g>
            <path class="cls-43" d="M38.83,55.71c-.63-.11.19-1,.34-1.17,3.54-4.06,8.54-7.17,13.43-9.24.63-.92-.7-1.97-1.01-2.69-1.7-.23-4.61,1.08-6.23,2-5.6,3.16-11.31,9.33-12.24,15.8.07.54-.05,1.13,0,1.68,1.41-1.71,4.14-4.94,5.71-6.38Z"/>
            <g>
              <path class="cls-29" d="M16.66,76.87c-1.24.51-2.1.79-3.18,1.69-2.39,2-5.9,7.8-6.22,10.91-.08.74.17.9.42.08,1.84-5.41,6.47-9.3,11.68-11.33-4.64,4.86-6.9,11.52-7.56,18.13,2.56-5.54,6.2-10.57,10.58-14.77-2.3,7.61-5.68,14.91-7.81,22.58-.18.64-1.01,2.56-.25,2.94,2.01-6.73,4.69-13.5,8.01-19.7,3.09-5.78,7.06-11.21,11.47-16.07,5.96-6.58,12.81-12.8,22.17-13.25-1.54,1.73-3.76,2.65-5.62,3.95-.15.11-1.05.55-.59.75,2.95-1.59,6.33-1.74,9.57-2.35l-.07-1.25c-2.14-3.09-4.25-6.28-5.65-9.78l-.99-.72-1.18-.29c-4.22,1.01-10.09,3.84-12.59,7.35l-.77-.19c-2.24,1.9-3.89,4.09-4.93,6.57l-.94.1c-1.87,2.25-2.81,4.73-3.09,7.62l-.84.34c-.75,3.39-2.12,6.36-4.1,8.93.34-1.79-.92-2.54-3.78-2.24-1.36.18-2.59.18-3.7.03Z"/>
              <path class="cls-21" d="M63,63.44c-1.69-2.37-3.45-4.74-4.7-7.39.48-.8.27-1.28-.67-1.01l-3.36-5.71c.71-.44.57-.87,0-1.34-.62-.88-1.63-.35-1.68.67,1.49,4.06,4.16,8.23,6.72,11.75.62.85,1.33,1.93,2.01,2.69.63.7.99,1.7,1.68.34Z"/>
              <path class="cls-6" d="M49.57,56.05c-3.11.41-6.62,1.22-8.73,3.69l8.73-3.69Z"/>
            </g>
            <path class="cls-1" d="M54.27,49.33c.7,2.15,2.02,3.96,3.36,5.71-.7-1.99-1.99-4.09-3.36-5.71Z"/>
            <path class="cls-13" d="M51.59,42.62c-.55-1.27-1.86-4.83-2.01-6.04-3.83.39-6.71,1.86-10.07,3.36-1.02,1.75-2.12,3.01-2.94,4.95-1.24,2.94-2.53,7.43-3.51,10.6-.2.65-.39,1.21-.27,1.91.14.96.21,2.03.34,3.02,2.2-5.77,6.44-11.67,11.86-14.83,2.13-1.24,4.47-1.78,6.61-2.97Z"/>
          </g>
          <g>
            <path class="cls-31" d="M57.63,114.82c.58.53,1.47.29,2.26.59,1.14.43,8.1,5.98,8.14,6.63s-.64.27-.88.22c-3.3-.72-6.48-2.25-9.86-2.74l6.04,5.7c-3.67-.33-7.38-1.44-11.08-.84,2.37,3.11,5.73,4.83,8.64,7.13.22.17.94.26.43.76-.59.59-6.12.78-7.22.67-2.09-.21-3.71-1.14-5.54-2.01,1.84,3.57,5.12,7.35,8.56,9.41.31.19,2.4.79.67,1-2.54.31-5.85-1.59-8.23-2.36,1.72,2.94,4.71,4.7,7.05,7.05-6.78-1.28-12.49-8.01-13.68-14.69-.06-.36.11-4.17-.76-3.11-1.11,4.42-1.29,8.34,0,12.76l-2.18-2.01c.06,1.61.58,3.59,1.17,5.21,6.56,18.1,38.77,19.65,48.53,3.52v3.35c2.41-2.32,3.39-6.48,1.51-9.4,1.71.06,3.16-1.1,4.36-2.19-.25-.43-1.51,0-1.68-.16-.14-.14.07-3.16,0-3.86-.64-6.41-6.81-13.4-11.84-17.04-1.51-1.09-3.76-2.85-5.61-2.78,2.63,2.06,5.27,4.63,6.84,7.6.2.37.8,1.28.38,1.63-7.61-7.1-17.48-12.29-28.04-12.76l1.34,1.34c-.23.8.7,1.13,1.38,1.27.05,0-.6-.63-.7.07Z"/>
            <path class="cls-16" d="M96.25,124.56c-.48-1.98-.48-3.64-1.28-5.6-.58-1.41-1.78-3.11-2.67-4.39-.73-1.04-.32-.08-.41.25,1.15,3.56,1.6,7.38,2.01,11.08,1.16.18,1.82-.39,2.35-1.34Z"/>
          </g>
        </g>
      </g>
    </g>
  </g>
</svg>