<?xml version="1.0" encoding="UTF-8" standalone="no"?>
<!DOCTYPE svg PUBLIC "-//W3C//DTD SVG 1.1//EN" "http://www.w3.org/Graphics/SVG/1.1/DTD/svg11.dtd">
<svg width="100%" height="100%" viewBox="0 0 154 126" version="1.1" xmlns="http://www.w3.org/2000/svg" xmlns:xlink="http://www.w3.org/1999/xlink" xml:space="preserve" xmlns:serif="http://www.serif.com/" style="fill-rule:evenodd;clip-rule:evenodd;stroke-linecap:round;stroke-linejoin:round;stroke-miterlimit:1.5;">
    <g transform="matrix(1,0,0,1,-4281,-680)">
        <g transform="matrix(1.572,0,0,1.91604,3079.1,402.293)">
            <g id="man" transform="matrix(0.852156,0,-1.50236e-32,0.852156,108.157,23.7999)">
                <g transform="matrix(0.636132,0,0,0.521909,336.417,-1292.29)">
                    <ellipse cx="772.626" cy="2842.5" rx="42.244" ry="48.516" style="fill:none;stroke:rgb(0,194,255);stroke-width:9.39px;"/>
                </g>
                <g transform="matrix(0.636132,0,0,0.521909,335.702,-1292.77)">
                    <path d="M812.437,2859.41C812.437,2859.41 826.917,2854.17 839.628,2849.57C850.915,2845.48 858.433,2834.76 858.433,2822.76L858.433,2798.2C858.433,2793.71 857.86,2789.23 856.73,2784.89C855.303,2779.4 853.247,2771.49 851.644,2765.32C850.232,2759.89 845.103,2756.27 839.511,2756.76C839.511,2756.76 839.51,2756.76 839.509,2756.76C835.209,2757.14 831.243,2759.23 828.501,2762.56C825.76,2765.9 824.474,2770.19 824.933,2774.48C825.834,2782.9 826.747,2791.43 826.747,2791.43C813.988,2782.57 790.988,2776.21 773.75,2775.72" style="fill:none;stroke:rgb(0,194,255);stroke-width:9.39px;"/>
                </g>
                <g transform="matrix(-0.636132,0,0,0.521909,1320.02,-1292.77)">
                    <path d="M812.437,2859.41C812.437,2859.41 826.917,2854.17 839.628,2849.57C850.915,2845.48 858.433,2834.76 858.433,2822.76L858.433,2798.2C858.433,2793.71 857.86,2789.23 856.73,2784.89C855.303,2779.4 853.247,2771.49 851.644,2765.32C850.232,2759.89 845.103,2756.27 839.511,2756.76C839.511,2756.76 839.51,2756.76 839.509,2756.76C835.209,2757.14 831.243,2759.23 828.501,2762.56C825.76,2765.9 824.474,2770.19 824.933,2774.48C825.834,2782.9 826.747,2791.43 826.747,2791.43C813.988,2782.57 790.988,2776.21 773.75,2775.72" style="fill:none;stroke:rgb(0,194,255);stroke-width:9.39px;"/>
                </g>
                <g transform="matrix(0.636132,0,0,0.521909,334.597,-1290.32)">
                    <path d="M782.055,2769.99C782.055,2758.79 787.789,2749.7 794.851,2749.7C801.913,2749.7 807.647,2758.79 807.647,2769.99C807.647,2771.7 807.549,2773.8 807.359,2776.16" style="fill:none;stroke:rgb(0,194,255);stroke-width:9.39px;"/>
                </g>
                <g transform="matrix(-0.636132,0,0,0.521909,1321.13,-1290.32)">
                    <path d="M782.055,2769.99C782.055,2758.79 787.789,2749.7 794.851,2749.7C801.913,2749.7 807.647,2758.79 807.647,2769.99C807.647,2771.7 807.549,2773.8 807.359,2776.16" style="fill:none;stroke:rgb(0,194,255);stroke-width:9.39px;"/>
                </g>
                <g transform="matrix(0.636132,0,0,0.521909,335.702,-1292.77)">
                    <path d="M826.747,2791.43C826.747,2791.43 834.676,2796.69 837.802,2805.05" style="fill:none;stroke:rgb(0,194,255);stroke-width:9.39px;"/>
                </g>
                <g transform="matrix(-0.636132,0,0,0.521909,1320.02,-1292.77)">
                    <path d="M826.747,2791.43C826.747,2791.43 834.676,2796.69 837.802,2805.05" style="fill:none;stroke:rgb(0,194,255);stroke-width:9.39px;"/>
                </g>
            </g>
        </g>
    </g>
</svg>
