<svg width="130" height="58" viewBox="0 0 130 58" fill="none" xmlns="http://www.w3.org/2000/svg">
<path d="M84.4172 38.9761H96.4068V41.886H87.6383V46.3274H95.9466V49.2372H87.6383V54.1381H96.8669V57.0479H84.4172V38.9761Z" fill="#FFB300"/>
<path d="M77.788 55.7206C75.5554 56.9118 73.0586 57.5073 70.2977 57.5073C68.9002 57.5073 67.6135 57.2861 66.4375 56.8437C65.2786 56.3842 64.2731 55.7461 63.421 54.9293C62.5859 54.0955 61.9297 53.1 61.4526 51.9429C60.9754 50.7857 60.7368 49.501 60.7368 48.0886C60.7368 46.6422 60.9754 45.3319 61.4526 44.1577C61.9297 42.9665 62.5859 41.954 63.421 41.1202C64.2731 40.2864 65.2786 39.6483 66.4375 39.2058C67.6135 38.7464 68.9002 38.5167 70.2977 38.5167C71.6782 38.5167 72.9734 38.6868 74.1834 39.0272C75.3935 39.3505 76.4757 39.9376 77.4301 40.7884L75.0526 43.1878C74.4732 42.6262 73.7659 42.1923 72.9308 41.886C72.1127 41.5797 71.2436 41.4265 70.3233 41.4265C69.3859 41.4265 68.5338 41.5967 67.7669 41.937C67.017 42.2603 66.3694 42.7198 65.824 43.3154C65.2786 43.894 64.8526 44.5746 64.5458 45.3574C64.2561 46.1402 64.1112 46.9825 64.1112 47.8844C64.1112 48.8543 64.2561 49.7477 64.5458 50.5645C64.8526 51.3813 65.2786 52.0875 65.824 52.6831C66.3694 53.2787 67.017 53.7466 67.7669 54.087C68.5338 54.4273 69.3859 54.5975 70.3233 54.5975C71.1413 54.5975 71.9082 54.5209 72.624 54.3678C73.3569 54.2146 74.0045 53.9764 74.5669 53.6531V49.3904H70.8601V46.4805H77.788V55.7206Z" fill="#FFB300"/>
<path d="M42.7939 38.9761H49.0826C49.9518 38.9761 50.7869 39.0612 51.5879 39.2314C52.4059 39.3845 53.1302 39.6568 53.7608 40.0482C54.3914 40.4396 54.8942 40.9671 55.2691 41.6307C55.644 42.2944 55.8315 43.1367 55.8315 44.1577C55.8315 45.468 55.4651 46.5656 54.7323 47.4505C54.0165 48.3353 52.9854 48.8714 51.639 49.0586L56.445 57.0479H52.5593L48.3668 49.3904H46.0149V57.0479H42.7939V38.9761ZM48.5202 46.6337C48.9803 46.6337 49.4405 46.6167 49.9007 46.5826C50.3608 46.5316 50.7783 46.4295 51.1533 46.2763C51.5453 46.1062 51.8606 45.8594 52.0992 45.5361C52.3378 45.1958 52.4571 44.7278 52.4571 44.1322C52.4571 43.6047 52.3463 43.1793 52.1247 42.856C51.9032 42.5326 51.6134 42.2944 51.2555 42.1412C50.8977 41.9711 50.4971 41.8605 50.054 41.8094C49.628 41.7584 49.2104 41.7328 48.8014 41.7328H46.0149V46.6337H48.5202Z" fill="#FFB300"/>
<path d="M17.7153 48.0886C17.7153 46.6422 17.9539 45.3319 18.4311 44.1577C18.9083 42.9666 19.5644 41.9541 20.3995 41.1203C21.2517 40.2864 22.2572 39.6483 23.4161 39.2059C24.592 38.7464 25.8787 38.5167 27.2762 38.5167C28.6908 38.4997 29.986 38.7124 31.162 39.1548C32.3379 39.5802 33.352 40.2099 34.2041 41.0437C35.0562 41.8775 35.7209 42.8815 36.1981 44.0556C36.6753 45.2298 36.9139 46.5401 36.9139 47.9865C36.9139 49.3989 36.6753 50.6837 36.1981 51.8408C35.7209 52.9979 35.0562 53.9934 34.2041 54.8272C33.352 55.6611 32.3379 56.3162 31.162 56.7927C29.986 57.2521 28.6908 57.4904 27.2762 57.5074C25.8787 57.5074 24.592 57.2862 23.4161 56.8437C22.2572 56.3843 21.2517 55.7461 20.3995 54.9293C19.5644 54.0955 18.9083 53.1 18.4311 51.9429C17.9539 50.7858 17.7153 49.501 17.7153 48.0886ZM21.0898 47.8844C21.0898 48.8544 21.2346 49.7477 21.5243 50.5645C21.8311 51.3813 22.2572 52.0875 22.8025 52.6831C23.3479 53.2787 23.9955 53.7467 24.7454 54.087C25.5123 54.4273 26.3645 54.5975 27.3018 54.5975C28.2392 54.5975 29.0913 54.4273 29.8582 54.087C30.6251 53.7467 31.2813 53.2787 31.8266 52.6831C32.372 52.0875 32.7896 51.3813 33.0793 50.5645C33.3861 49.7477 33.5394 48.8544 33.5394 47.8844C33.5394 46.9825 33.3861 46.1402 33.0793 45.3574C32.7896 44.5747 32.372 43.894 31.8266 43.3154C31.2813 42.7198 30.6251 42.2604 29.8582 41.9371C29.0913 41.5967 28.2392 41.4266 27.3018 41.4266C26.3645 41.4266 25.5123 41.5967 24.7454 41.9371C23.9955 42.2604 23.3479 42.7198 22.8025 43.3154C22.2572 43.894 21.8311 44.5747 21.5243 45.3574C21.2346 46.1402 21.0898 46.9825 21.0898 47.8844Z" fill="#FFB300"/>
<path d="M1.19537 38.9761H12.8781V41.886H4.41644V46.6337H12.3924V49.5435H4.41644V57.0479H1.19537V38.9761Z" fill="#FFB300"/>
<path fill-rule="evenodd" clip-rule="evenodd" d="M113.365 17.4978C112.173 24.163 115.571 25.5555 121.166 33.6862C126.761 41.8169 119.917 51.1913 119.917 51.1913C120.458 43.5601 119.63 44.6345 109.939 31.3756C100.247 18.1166 114.155 1.28421 114.155 1.28421C114.155 1.28421 113.132 6.00321 118.634 12.7399C124.136 19.4765 132.404 27.3634 126.046 41.8986C126.046 41.8986 126.494 34.5992 121.166 28.2442C115.837 21.8893 117.32 24.4861 113.365 17.4978Z" fill="#E65100"/>
<path fill-rule="evenodd" clip-rule="evenodd" d="M104.167 22.3978C104.167 22.3978 103.44 29.5268 111.81 39.1517C120.179 48.7763 117.795 54.4801 116.309 57.0653C116.309 57.0653 115.459 53.9335 109.485 47.1768C103.511 40.4201 99.4308 31.5075 104.167 22.3978Z" fill="#FFB300"/>
<path d="M0.772156 9.63092H9.40021V34.1503H18.1168V9.63092H26.9218V0.971619H0.772156V9.63092Z" fill="white"/>
<path d="M50.4167 1.01599L39.2665 12.1932V1.01599H30.5499V34.1503H39.2665V24.5191L44.8103 19.0057L42.8604 23.9568L53.1599 34.1503H65.4606L47.4965 16.1693L62.6288 1.01599H50.4167Z" fill="white"/>
<path d="M67.9135 34.1503H80.2137C89.3731 34.1503 96.8063 26.728 96.8063 17.583C96.8063 8.43791 89.3731 1.01599 80.2137 1.01599H67.9135V34.1503ZM76.5856 9.89598H80.2582C84.5942 9.89598 88.1338 13.4302 88.1338 17.7157C88.1338 22.0452 84.5942 25.5794 80.2582 25.5794H76.5856V9.89598Z" fill="white"/>
</svg>
